<?xml version="1.0" encoding="UTF-8" standalone="no"?><svg xmlns="http://www.w3.org/2000/svg" xmlns:xlink="http://www.w3.org/1999/xlink" contentScriptType="application/ecmascript" contentStyleType="text/css" height="2000px" preserveAspectRatio="none" style="width:1207px;height:2000px;" version="1.1" viewBox="0 0 1207 2000" width="1207px" zoomAndPan="magnify"><defs><filter height="300%" id="f1vwjffpa9zb68" width="300%" x="-1" y="-1"><feGaussianBlur result="blurOut" stdDeviation="2.0"/><feColorMatrix in="blurOut" result="blurOut2" type="matrix" values="0 0 0 0 0 0 0 0 0 0 0 0 0 0 0 0 0 0 .4 0"/><feOffset dx="4.0" dy="4.0" in="blurOut2" result="blurOut3"/><feBlend in="SourceGraphic" in2="blurOut3" mode="normal"/></filter></defs><g><!--MD5=[d1c833a9f267d45f9569401dc9481c41]
class SpringBeanConfig--><rect codeLine="3" fill="#FEFECE" filter="url(#f1vwjffpa9zb68)" height="53.8359" id="SpringBeanConfig" style="stroke:#A80036;stroke-width:1.5;" width="181" x="15.9" y="798"/><ellipse cx="47.55" cy="814" fill="#ADD1B2" rx="11" ry="11" style="stroke:#A80036;stroke-width:1.0;"/><path d="M50.3156,809.875 Q50.4719,809.6563 50.6594,809.5469 Q50.8469,809.4375 51.0656,809.4375 Q51.4406,809.4375 51.675,809.7031 Q51.9094,809.9531 51.9094,810.5625 L51.9094,812.0156 Q51.9094,812.625 51.675,812.8906 Q51.4406,813.1563 51.0656,813.1563 Q50.7219,813.1563 50.5188,812.9531 Q50.3156,812.7656 50.2063,812.25 Q50.1594,811.8906 49.9719,811.7031 Q49.6438,811.3281 49.0344,811.1094 Q48.425,810.8906 47.8,810.8906 Q47.0344,810.8906 46.3938,811.2188 Q45.7688,811.5469 45.2688,812.2969 Q44.7844,813.0469 44.7844,814.0781 L44.7844,815.1719 Q44.7844,816.4063 45.675,817.2344 Q46.5656,818.0469 48.1594,818.0469 Q49.0969,818.0469 49.7531,817.7969 Q50.1438,817.6406 50.5656,817.2031 Q50.8313,816.9375 50.9719,816.8594 Q51.1281,816.7813 51.3313,816.7813 Q51.6594,816.7813 51.9094,817.0469 Q52.175,817.2969 52.175,817.6406 Q52.175,817.9844 51.8313,818.3906 Q51.3313,818.9688 50.5344,819.2969 Q49.4563,819.75 48.1594,819.75 Q46.6438,819.75 45.4406,819.125 Q44.4563,818.625 43.7688,817.5625 Q43.0813,816.4844 43.0813,815.2031 L43.0813,814.0469 Q43.0813,812.7188 43.6906,811.5781 Q44.3156,810.4219 45.4094,809.8125 Q46.5031,809.1875 47.7375,809.1875 Q48.4719,809.1875 49.1125,809.3594 Q49.7688,809.5156 50.3156,809.875 Z " fill="#000000"/><ellipse cx="70.25" cy="813.5" fill="#84BE84" rx="3" ry="3" style="stroke:#038048;stroke-width:1.0;"/><text fill="#000000" font-family="sans-serif" font-size="12" lengthAdjust="spacing" textLength="101" x="76.25" y="818.9102">SpringBeanConfig</text><line style="stroke:#A80036;stroke-width:1.5;" x1="16.9" x2="195.9" y1="830" y2="830"/><polygon fill="#4177AF" points="26.9,837,22.9,843,30.9,843" style="stroke:#1963A0;stroke-width:1.0;"/><text fill="#000000" font-family="sans-serif" font-size="11" lengthAdjust="spacing" textLength="155" x="35.9" y="845.4189">JavaParser createJavaparser ()</text><!--MD5=[982717030f7f8a754eb395d027bc6f71]
class JavaParser--><rect fill="#FEFECE" filter="url(#f1vwjffpa9zb68)" height="32" id="JavaParser" style="stroke:#A80036;stroke-width:1.5;" width="94" x="59.4" y="1020"/><ellipse cx="74.4" cy="1036" fill="#ADD1B2" rx="11" ry="11" style="stroke:#A80036;stroke-width:1.0;"/><path d="M77.1656,1031.875 Q77.3219,1031.6563 77.5094,1031.5469 Q77.6969,1031.4375 77.9156,1031.4375 Q78.2906,1031.4375 78.525,1031.7031 Q78.7594,1031.9531 78.7594,1032.5625 L78.7594,1034.0156 Q78.7594,1034.625 78.525,1034.8906 Q78.2906,1035.1563 77.9156,1035.1563 Q77.5719,1035.1563 77.3688,1034.9531 Q77.1656,1034.7656 77.0563,1034.25 Q77.0094,1033.8906 76.8219,1033.7031 Q76.4938,1033.3281 75.8844,1033.1094 Q75.275,1032.8906 74.65,1032.8906 Q73.8844,1032.8906 73.2438,1033.2188 Q72.6188,1033.5469 72.1188,1034.2969 Q71.6344,1035.0469 71.6344,1036.0781 L71.6344,1037.1719 Q71.6344,1038.4063 72.525,1039.2344 Q73.4156,1040.0469 75.0094,1040.0469 Q75.9469,1040.0469 76.6031,1039.7969 Q76.9938,1039.6406 77.4156,1039.2031 Q77.6813,1038.9375 77.8219,1038.8594 Q77.9781,1038.7813 78.1813,1038.7813 Q78.5094,1038.7813 78.7594,1039.0469 Q79.025,1039.2969 79.025,1039.6406 Q79.025,1039.9844 78.6813,1040.3906 Q78.1813,1040.9688 77.3844,1041.2969 Q76.3063,1041.75 75.0094,1041.75 Q73.4938,1041.75 72.2906,1041.125 Q71.3063,1040.625 70.6188,1039.5625 Q69.9313,1038.4844 69.9313,1037.2031 L69.9313,1036.0469 Q69.9313,1034.7188 70.5406,1033.5781 Q71.1656,1032.4219 72.2594,1031.8125 Q73.3531,1031.1875 74.5875,1031.1875 Q75.3219,1031.1875 75.9625,1031.3594 Q76.6188,1031.5156 77.1656,1031.875 Z " fill="#000000"/><text fill="#000000" font-family="sans-serif" font-size="12" lengthAdjust="spacing" textLength="62" x="88.4" y="1040.9102">JavaParser</text><!--MD5=[9415fe65e8c5ef434efd5955f96cda56]
class RegExpConstants--><rect codeLine="9" fill="#FEFECE" filter="url(#f1vwjffpa9zb68)" height="344.3906" id="RegExpConstants" style="stroke:#A80036;stroke-width:1.5;" width="269" x="370.9" y="7"/><ellipse cx="445.65" cy="23" fill="#ADD1B2" rx="11" ry="11" style="stroke:#A80036;stroke-width:1.0;"/><path d="M448.4156,18.875 Q448.5719,18.6563 448.7594,18.5469 Q448.9469,18.4375 449.1656,18.4375 Q449.5406,18.4375 449.775,18.7031 Q450.0094,18.9531 450.0094,19.5625 L450.0094,21.0156 Q450.0094,21.625 449.775,21.8906 Q449.5406,22.1563 449.1656,22.1563 Q448.8219,22.1563 448.6188,21.9531 Q448.4156,21.7656 448.3063,21.25 Q448.2594,20.8906 448.0719,20.7031 Q447.7438,20.3281 447.1344,20.1094 Q446.525,19.8906 445.9,19.8906 Q445.1344,19.8906 444.4938,20.2188 Q443.8688,20.5469 443.3688,21.2969 Q442.8844,22.0469 442.8844,23.0781 L442.8844,24.1719 Q442.8844,25.4063 443.775,26.2344 Q444.6656,27.0469 446.2594,27.0469 Q447.1969,27.0469 447.8531,26.7969 Q448.2438,26.6406 448.6656,26.2031 Q448.9313,25.9375 449.0719,25.8594 Q449.2281,25.7813 449.4313,25.7813 Q449.7594,25.7813 450.0094,26.0469 Q450.275,26.2969 450.275,26.6406 Q450.275,26.9844 449.9313,27.3906 Q449.4313,27.9688 448.6344,28.2969 Q447.5563,28.75 446.2594,28.75 Q444.7438,28.75 443.5406,28.125 Q442.5563,27.625 441.8688,26.5625 Q441.1813,25.4844 441.1813,24.2031 L441.1813,23.0469 Q441.1813,21.7188 441.7906,20.5781 Q442.4156,19.4219 443.5094,18.8125 Q444.6031,18.1875 445.8375,18.1875 Q446.5719,18.1875 447.2125,18.3594 Q447.8688,18.5156 448.4156,18.875 Z " fill="#000000"/><ellipse cx="471.15" cy="22.5" fill="#84BE84" rx="3" ry="3" style="stroke:#038048;stroke-width:1.0;"/><text fill="#000000" font-family="sans-serif" font-size="12" lengthAdjust="spacing" textLength="100" x="477.15" y="27.9102">RegExpConstants</text><line style="stroke:#A80036;stroke-width:1.5;" x1="371.9" x2="638.9" y1="39" y2="39"/><ellipse cx="381.9" cy="50" rx="3" ry="3" style="stroke:#038048;stroke-width:1.0;fill:none;"/><text fill="#000000" font-family="sans-serif" font-size="11" lengthAdjust="spacing" textLength="120" x="390.9" y="54.4189">String JAVA_PRIMITIVES</text><ellipse cx="381.9" cy="63.8359" rx="3" ry="3" style="stroke:#038048;stroke-width:1.0;fill:none;"/><text fill="#000000" font-family="sans-serif" font-size="11" lengthAdjust="spacing" textLength="240" x="390.9" y="68.2549">String GENERIC_CORE_JAVA_OBJECT_PATTERN</text><ellipse cx="381.9" cy="77.6719" rx="3" ry="3" style="stroke:#038048;stroke-width:1.0;fill:none;"/><text fill="#000000" font-family="sans-serif" font-size="11" lengthAdjust="spacing" textLength="199" x="390.9" y="82.0908">String JAVA_LANG_REFLECT_CLASSES</text><ellipse cx="381.9" cy="91.5078" rx="3" ry="3" style="stroke:#038048;stroke-width:1.0;fill:none;"/><text fill="#000000" font-family="sans-serif" font-size="11" lengthAdjust="spacing" textLength="174" x="390.9" y="95.9268">String JAVA_LANG_REF_CLASSES</text><ellipse cx="381.9" cy="105.3438" rx="3" ry="3" style="stroke:#038048;stroke-width:1.0;fill:none;"/><text fill="#000000" font-family="sans-serif" font-size="11" lengthAdjust="spacing" textLength="227" x="390.9" y="109.7627">String JAVA_LANG_MANAGEMENT_CLASSES</text><ellipse cx="381.9" cy="119.1797" rx="3" ry="3" style="stroke:#038048;stroke-width:1.0;fill:none;"/><text fill="#000000" font-family="sans-serif" font-size="11" lengthAdjust="spacing" textLength="193" x="390.9" y="123.5986">String JAVA_LANG_INVOKE_CLASSES</text><ellipse cx="381.9" cy="133.0156" rx="3" ry="3" style="stroke:#038048;stroke-width:1.0;fill:none;"/><text fill="#000000" font-family="sans-serif" font-size="11" lengthAdjust="spacing" textLength="218" x="390.9" y="137.4346">String JAVA_LANG_INSTRUMENT_CLASSES</text><ellipse cx="381.9" cy="146.8516" rx="3" ry="3" style="stroke:#038048;stroke-width:1.0;fill:none;"/><text fill="#000000" font-family="sans-serif" font-size="11" lengthAdjust="spacing" textLength="149" x="390.9" y="151.2705">String JAVA_LANG_CLASSES</text><ellipse cx="381.9" cy="160.6875" rx="3" ry="3" style="stroke:#038048;stroke-width:1.0;fill:none;"/><text fill="#000000" font-family="sans-serif" font-size="11" lengthAdjust="spacing" textLength="163" x="390.9" y="165.1064">String JAVA_LANG_INTERFACES</text><ellipse cx="381.9" cy="174.5234" rx="3" ry="3" style="stroke:#038048;stroke-width:1.0;fill:none;"/><text fill="#000000" font-family="sans-serif" font-size="11" lengthAdjust="spacing" textLength="243" x="390.9" y="178.9424">String JAVA_LANG_ANNOTATIONS_INTERFACES</text><ellipse cx="381.9" cy="188.3594" rx="3" ry="3" style="stroke:#038048;stroke-width:1.0;fill:none;"/><text fill="#000000" font-family="sans-serif" font-size="11" lengthAdjust="spacing" textLength="232" x="390.9" y="192.7783">String JAVA_LANG_INSTRUMENT_INTERFACES</text><ellipse cx="381.9" cy="202.1953" rx="3" ry="3" style="stroke:#038048;stroke-width:1.0;fill:none;"/><text fill="#000000" font-family="sans-serif" font-size="11" lengthAdjust="spacing" textLength="207" x="390.9" y="206.6143">String JAVA_LANG_INVOKE_INTERFACES</text><ellipse cx="381.9" cy="216.0313" rx="3" ry="3" style="stroke:#038048;stroke-width:1.0;fill:none;"/><text fill="#000000" font-family="sans-serif" font-size="11" lengthAdjust="spacing" textLength="241" x="390.9" y="220.4502">String JAVA_LANG_MANAGEMENT_INTERFACES</text><ellipse cx="381.9" cy="229.8672" rx="3" ry="3" style="stroke:#038048;stroke-width:1.0;fill:none;"/><text fill="#000000" font-family="sans-serif" font-size="11" lengthAdjust="spacing" textLength="213" x="390.9" y="234.2861">String JAVA_LANG_REFLECT_INTERFACES</text><ellipse cx="381.9" cy="243.7031" rx="3" ry="3" style="stroke:#038048;stroke-width:1.0;fill:none;"/><text fill="#000000" font-family="sans-serif" font-size="11" lengthAdjust="spacing" textLength="145" x="390.9" y="248.1221">String JAVA_LANG_REFLECT</text><ellipse cx="381.9" cy="257.5391" rx="3" ry="3" style="stroke:#038048;stroke-width:1.0;fill:none;"/><text fill="#000000" font-family="sans-serif" font-size="11" lengthAdjust="spacing" textLength="173" x="390.9" y="261.958">String JAVA_LANG_MANAGEMENT</text><ellipse cx="381.9" cy="271.375" rx="3" ry="3" style="stroke:#038048;stroke-width:1.0;fill:none;"/><text fill="#000000" font-family="sans-serif" font-size="11" lengthAdjust="spacing" textLength="139" x="390.9" y="275.7939">String JAVA_LANG_INVOKE</text><ellipse cx="381.9" cy="285.2109" rx="3" ry="3" style="stroke:#038048;stroke-width:1.0;fill:none;"/><text fill="#000000" font-family="sans-serif" font-size="11" lengthAdjust="spacing" textLength="157" x="390.9" y="289.6299">String JAVA_LANG_INTRUMENT</text><ellipse cx="381.9" cy="299.0469" rx="3" ry="3" style="stroke:#038048;stroke-width:1.0;fill:none;"/><text fill="#000000" font-family="sans-serif" font-size="11" lengthAdjust="spacing" textLength="95" x="390.9" y="303.4658">String JAVA_LANG</text><ellipse cx="381.9" cy="312.8828" rx="3" ry="3" style="stroke:#038048;stroke-width:1.0;fill:none;"/><text fill="#000000" font-family="sans-serif" font-size="11" lengthAdjust="spacing" textLength="146" x="390.9" y="317.3018">String JAVA_CORE_REG_EXP</text><ellipse cx="381.9" cy="326.7188" rx="3" ry="3" style="stroke:#038048;stroke-width:1.0;fill:none;"/><text fill="#000000" font-family="sans-serif" font-size="11" lengthAdjust="spacing" textLength="196" x="390.9" y="331.1377">String JAVA_CORE_PACKAGE_REGEXP</text><ellipse cx="381.9" cy="340.5547" rx="3" ry="3" style="stroke:#038048;stroke-width:1.0;fill:none;"/><text fill="#000000" font-family="sans-serif" font-size="11" lengthAdjust="spacing" textLength="93" x="390.9" y="344.9736">String BLACK_LIST</text><!--MD5=[c5bb3d6de0a843cc140040ea1d5cfadc]
class ClassDto--><rect codeLine="35" fill="#FEFECE" filter="url(#f1vwjffpa9zb68)" height="32" id="ClassDto" style="stroke:#A80036;stroke-width:1.5;" width="95" x="953.9" y="1656"/><ellipse cx="968.9" cy="1672" fill="#ADD1B2" rx="11" ry="11" style="stroke:#A80036;stroke-width:1.0;"/><path d="M971.6656,1667.875 Q971.8219,1667.6563 972.0094,1667.5469 Q972.1969,1667.4375 972.4156,1667.4375 Q972.7906,1667.4375 973.025,1667.7031 Q973.2594,1667.9531 973.2594,1668.5625 L973.2594,1670.0156 Q973.2594,1670.625 973.025,1670.8906 Q972.7906,1671.1563 972.4156,1671.1563 Q972.0719,1671.1563 971.8688,1670.9531 Q971.6656,1670.7656 971.5563,1670.25 Q971.5094,1669.8906 971.3219,1669.7031 Q970.9938,1669.3281 970.3844,1669.1094 Q969.775,1668.8906 969.15,1668.8906 Q968.3844,1668.8906 967.7438,1669.2188 Q967.1188,1669.5469 966.6188,1670.2969 Q966.1344,1671.0469 966.1344,1672.0781 L966.1344,1673.1719 Q966.1344,1674.4063 967.025,1675.2344 Q967.9156,1676.0469 969.5094,1676.0469 Q970.4469,1676.0469 971.1031,1675.7969 Q971.4938,1675.6406 971.9156,1675.2031 Q972.1813,1674.9375 972.3219,1674.8594 Q972.4781,1674.7813 972.6813,1674.7813 Q973.0094,1674.7813 973.2594,1675.0469 Q973.525,1675.2969 973.525,1675.6406 Q973.525,1675.9844 973.1813,1676.3906 Q972.6813,1676.9688 971.8844,1677.2969 Q970.8063,1677.75 969.5094,1677.75 Q967.9938,1677.75 966.7906,1677.125 Q965.8063,1676.625 965.1188,1675.5625 Q964.4313,1674.4844 964.4313,1673.2031 L964.4313,1672.0469 Q964.4313,1670.7188 965.0406,1669.5781 Q965.6656,1668.4219 966.7594,1667.8125 Q967.8531,1667.1875 969.0875,1667.1875 Q969.8219,1667.1875 970.4625,1667.3594 Q971.1188,1667.5156 971.6656,1667.875 Z " fill="#000000"/><ellipse cx="987.9" cy="1671.5" fill="#84BE84" rx="3" ry="3" style="stroke:#038048;stroke-width:1.0;"/><text fill="#000000" font-family="sans-serif" font-size="12" lengthAdjust="spacing" textLength="52" x="993.9" y="1676.9102">ClassDto</text><!--MD5=[5c4a1eb3176073c4ed61846de8bc77c3]
class DiagramObject--><rect codeLine="40" fill="#FEFECE" filter="url(#f1vwjffpa9zb68)" height="136.8516" id="DiagramObject" style="stroke:#A80036;stroke-width:1.5;" width="150" x="789.4" y="1410"/><ellipse cx="814.75" cy="1426" fill="#A9DCDF" rx="11" ry="11" style="stroke:#A80036;stroke-width:1.0;"/><path d="M816.9375,1427.7656 L812.7969,1427.7656 L812.375,1428.7969 L812.7969,1428.7969 Q813.4063,1428.7969 813.6719,1429.0313 Q813.9375,1429.2656 813.9375,1429.6563 Q813.9375,1430.0313 813.6719,1430.2656 Q813.4063,1430.5 812.7969,1430.5 L810.5,1430.5 Q809.8906,1430.5 809.6406,1430.2656 Q809.375,1430.0313 809.375,1429.6406 Q809.375,1429.2656 809.6563,1429.0313 Q809.9219,1428.7813 810.5469,1428.7969 L813.2188,1422.1406 L812.1094,1422.1406 Q811.5,1422.1406 811.2344,1421.9063 Q810.9688,1421.6719 810.9688,1421.2813 Q810.9688,1420.9063 811.2344,1420.6719 Q811.5,1420.4375 812.1094,1420.4375 L815.7813,1420.4375 L819.1719,1428.7969 Q819.7656,1428.7969 819.9531,1428.9375 Q820.3438,1429.2031 820.3438,1429.6563 Q820.3438,1430.0313 820.0781,1430.2656 Q819.8281,1430.5 819.2188,1430.5 L816.9219,1430.5 Q816.3125,1430.5 816.0469,1430.2656 Q815.7813,1430.0313 815.7813,1429.6406 Q815.7813,1429.2656 816.0469,1429.0313 Q816.3125,1428.7969 816.9219,1428.7969 L817.3438,1428.7969 L816.9375,1427.7656 Z M816.2188,1426.0625 L814.8594,1422.6875 L813.4844,1426.0625 L816.2188,1426.0625 Z " fill="#000000"/><ellipse cx="836.05" cy="1425.5" fill="#84BE84" rx="3" ry="3" style="stroke:#038048;stroke-width:1.0;"/><text fill="#000000" font-family="sans-serif" font-size="12" font-style="italic" lengthAdjust="spacing" textLength="84" x="842.05" y="1430.9102">DiagramObject</text><line style="stroke:#A80036;stroke-width:1.5;" x1="790.4" x2="938.4" y1="1442" y2="1442"/><polygon fill="none" points="800.4,1448,804.4,1452,800.4,1456,796.4,1452" style="stroke:#B38D22;stroke-width:1.0;"/><text fill="#000000" font-family="sans-serif" font-size="11" lengthAdjust="spacing" textLength="57" x="809.4" y="1457.4189">String name</text><polygon fill="none" points="800.4,1461.8359,804.4,1465.8359,800.4,1469.8359,796.4,1465.8359" style="stroke:#B38D22;stroke-width:1.0;"/><text fill="#000000" font-family="sans-serif" font-size="11" lengthAdjust="spacing" textLength="75" x="809.4" y="1471.2549">String modifiers</text><polygon fill="none" points="800.4,1475.6719,804.4,1479.6719,800.4,1483.6719,796.4,1479.6719" style="stroke:#B38D22;stroke-width:1.0;"/><text fill="#000000" font-family="sans-serif" font-size="11" lengthAdjust="spacing" textLength="105" x="809.4" y="1485.0908">String accessModifier</text><polygon fill="none" points="800.4,1489.5078,804.4,1493.5078,800.4,1497.5078,796.4,1493.5078" style="stroke:#B38D22;stroke-width:1.0;"/><text fill="#000000" font-family="sans-serif" font-size="11" lengthAdjust="spacing" textLength="107" x="809.4" y="1498.9268">List&lt;String&gt; implement</text><polygon fill="none" points="800.4,1503.3438,804.4,1507.3438,800.4,1511.3438,796.4,1507.3438" style="stroke:#B38D22;stroke-width:1.0;"/><text fill="#000000" font-family="sans-serif" font-size="11" lengthAdjust="spacing" textLength="105" x="809.4" y="1512.7627">List&lt;String&gt; extended</text><polygon fill="none" points="800.4,1517.1797,804.4,1521.1797,800.4,1525.1797,796.4,1521.1797" style="stroke:#B38D22;stroke-width:1.0;"/><text fill="#000000" font-family="sans-serif" font-size="11" lengthAdjust="spacing" textLength="96" x="809.4" y="1526.5986">List&lt;FieldDto&gt; fields</text><polygon fill="none" points="800.4,1531.0156,804.4,1535.0156,800.4,1539.0156,796.4,1535.0156" style="stroke:#B38D22;stroke-width:1.0;"/><text fill="#000000" font-family="sans-serif" font-size="11" lengthAdjust="spacing" textLength="124" x="809.4" y="1540.4346">List&lt;MethodDto&gt; methods</text><polygon fill="none" points="864.4,1546.8516,871.4,1566.8516,857.4,1566.8516" style="stroke:#A80036;stroke-width:1.0;"/><line style="stroke:#A80036;stroke-width:1.0;" x1="864.4" x2="864.4" y1="1566.8516" y2="1568.5"/><line style="stroke:#A80036;stroke-width:1.0;" x1="864.2457" x2="864.2" y1="1410" y2="1389.74"/><line style="stroke:#A80036;stroke-width:1.0;" x1="857.1083" x2="854.96" y1="1410" y2="1389.84"/><line style="stroke:#A80036;stroke-width:1.0;" x1="836.2438" x2="827.94" y1="1410" y2="1389.82"/><line style="stroke:#A80036;stroke-width:1.0;" x1="789.4" x2="769.18" y1="1418.9379" y2="1402.9"/><!--MD5=[d842245edf58a764bb41b652caea6424]
class EnumDto--><rect codeLine="51" fill="#FEFECE" filter="url(#f1vwjffpa9zb68)" height="32" id="EnumDto" style="stroke:#A80036;stroke-width:1.5;" width="95" x="679.9" y="1656"/><ellipse cx="694.9" cy="1672" fill="#ADD1B2" rx="11" ry="11" style="stroke:#A80036;stroke-width:1.0;"/><path d="M697.6656,1667.875 Q697.8219,1667.6563 698.0094,1667.5469 Q698.1969,1667.4375 698.4156,1667.4375 Q698.7906,1667.4375 699.025,1667.7031 Q699.2594,1667.9531 699.2594,1668.5625 L699.2594,1670.0156 Q699.2594,1670.625 699.025,1670.8906 Q698.7906,1671.1563 698.4156,1671.1563 Q698.0719,1671.1563 697.8688,1670.9531 Q697.6656,1670.7656 697.5563,1670.25 Q697.5094,1669.8906 697.3219,1669.7031 Q696.9938,1669.3281 696.3844,1669.1094 Q695.775,1668.8906 695.15,1668.8906 Q694.3844,1668.8906 693.7438,1669.2188 Q693.1188,1669.5469 692.6188,1670.2969 Q692.1344,1671.0469 692.1344,1672.0781 L692.1344,1673.1719 Q692.1344,1674.4063 693.025,1675.2344 Q693.9156,1676.0469 695.5094,1676.0469 Q696.4469,1676.0469 697.1031,1675.7969 Q697.4938,1675.6406 697.9156,1675.2031 Q698.1813,1674.9375 698.3219,1674.8594 Q698.4781,1674.7813 698.6813,1674.7813 Q699.0094,1674.7813 699.2594,1675.0469 Q699.525,1675.2969 699.525,1675.6406 Q699.525,1675.9844 699.1813,1676.3906 Q698.6813,1676.9688 697.8844,1677.2969 Q696.8063,1677.75 695.5094,1677.75 Q693.9938,1677.75 692.7906,1677.125 Q691.8063,1676.625 691.1188,1675.5625 Q690.4313,1674.4844 690.4313,1673.2031 L690.4313,1672.0469 Q690.4313,1670.7188 691.0406,1669.5781 Q691.6656,1668.4219 692.7594,1667.8125 Q693.8531,1667.1875 695.0875,1667.1875 Q695.8219,1667.1875 696.4625,1667.3594 Q697.1188,1667.5156 697.6656,1667.875 Z " fill="#000000"/><ellipse cx="713.9" cy="1671.5" fill="#84BE84" rx="3" ry="3" style="stroke:#038048;stroke-width:1.0;"/><text fill="#000000" font-family="sans-serif" font-size="12" lengthAdjust="spacing" textLength="52" x="719.9" y="1676.9102">EnumDto</text><!--MD5=[78fdfe9ef3ad5719c61b76d85ac7f3a9]
class FieldDto--><rect codeLine="56" fill="#FEFECE" filter="url(#f1vwjffpa9zb68)" height="109.1797" id="FieldDto" style="stroke:#A80036;stroke-width:1.5;" width="140" x="226.4" y="1424"/><ellipse cx="264.35" cy="1440" fill="#ADD1B2" rx="11" ry="11" style="stroke:#A80036;stroke-width:1.0;"/><path d="M267.1156,1435.875 Q267.2719,1435.6563 267.4594,1435.5469 Q267.6469,1435.4375 267.8656,1435.4375 Q268.2406,1435.4375 268.475,1435.7031 Q268.7094,1435.9531 268.7094,1436.5625 L268.7094,1438.0156 Q268.7094,1438.625 268.475,1438.8906 Q268.2406,1439.1563 267.8656,1439.1563 Q267.5219,1439.1563 267.3188,1438.9531 Q267.1156,1438.7656 267.0063,1438.25 Q266.9594,1437.8906 266.7719,1437.7031 Q266.4438,1437.3281 265.8344,1437.1094 Q265.225,1436.8906 264.6,1436.8906 Q263.8344,1436.8906 263.1938,1437.2188 Q262.5688,1437.5469 262.0688,1438.2969 Q261.5844,1439.0469 261.5844,1440.0781 L261.5844,1441.1719 Q261.5844,1442.4063 262.475,1443.2344 Q263.3656,1444.0469 264.9594,1444.0469 Q265.8969,1444.0469 266.5531,1443.7969 Q266.9438,1443.6406 267.3656,1443.2031 Q267.6313,1442.9375 267.7719,1442.8594 Q267.9281,1442.7813 268.1313,1442.7813 Q268.4594,1442.7813 268.7094,1443.0469 Q268.975,1443.2969 268.975,1443.6406 Q268.975,1443.9844 268.6313,1444.3906 Q268.1313,1444.9688 267.3344,1445.2969 Q266.2563,1445.75 264.9594,1445.75 Q263.4438,1445.75 262.2406,1445.125 Q261.2563,1444.625 260.5688,1443.5625 Q259.8813,1442.4844 259.8813,1441.2031 L259.8813,1440.0469 Q259.8813,1438.7188 260.4906,1437.5781 Q261.1156,1436.4219 262.2094,1435.8125 Q263.3031,1435.1875 264.5375,1435.1875 Q265.2719,1435.1875 265.9125,1435.3594 Q266.5688,1435.5156 267.1156,1435.875 Z " fill="#000000"/><ellipse cx="288.45" cy="1439.5" fill="#84BE84" rx="3" ry="3" style="stroke:#038048;stroke-width:1.0;"/><text fill="#000000" font-family="sans-serif" font-size="12" lengthAdjust="spacing" textLength="46" x="294.45" y="1444.9102">FieldDto</text><line style="stroke:#A80036;stroke-width:1.5;" x1="227.4" x2="365.4" y1="1456" y2="1456"/><rect fill="none" height="6" style="stroke:#C82930;stroke-width:1.0;" width="6" x="234.4" y="1464"/><text fill="#000000" font-family="sans-serif" font-size="11" lengthAdjust="spacing" textLength="105" x="246.4" y="1471.4189">String accessModifier</text><rect fill="none" height="6" style="stroke:#C82930;stroke-width:1.0;" width="6" x="234.4" y="1477.8359"/><text fill="#000000" font-family="sans-serif" font-size="11" lengthAdjust="spacing" textLength="104" x="246.4" y="1485.2549">List&lt;String&gt; modifiers</text><rect fill="none" height="6" style="stroke:#C82930;stroke-width:1.0;" width="6" x="234.4" y="1491.6719"/><text fill="#000000" font-family="sans-serif" font-size="11" lengthAdjust="spacing" textLength="52" x="246.4" y="1499.0908">String type</text><rect fill="none" height="6" style="stroke:#C82930;stroke-width:1.0;" width="6" x="234.4" y="1505.5078"/><text fill="#000000" font-family="sans-serif" font-size="11" lengthAdjust="spacing" textLength="57" x="246.4" y="1512.9268">String name</text><rect fill="none" height="6" style="stroke:#C82930;stroke-width:1.0;" width="6" x="234.4" y="1519.3438"/><text fill="#000000" font-family="sans-serif" font-size="11" lengthAdjust="spacing" textLength="114" x="246.4" y="1526.7627">Boolean isProjectObject</text><!--MD5=[3bcdc6a85c7802e8b1b2269bf9e572a9]
class InterfaceDto--><rect codeLine="65" fill="#FEFECE" filter="url(#f1vwjffpa9zb68)" height="32" id="InterfaceDto" style="stroke:#A80036;stroke-width:1.5;" width="109" x="809.9" y="1656"/><ellipse cx="824.9" cy="1672" fill="#ADD1B2" rx="11" ry="11" style="stroke:#A80036;stroke-width:1.0;"/><path d="M827.6656,1667.875 Q827.8219,1667.6563 828.0094,1667.5469 Q828.1969,1667.4375 828.4156,1667.4375 Q828.7906,1667.4375 829.025,1667.7031 Q829.2594,1667.9531 829.2594,1668.5625 L829.2594,1670.0156 Q829.2594,1670.625 829.025,1670.8906 Q828.7906,1671.1563 828.4156,1671.1563 Q828.0719,1671.1563 827.8688,1670.9531 Q827.6656,1670.7656 827.5563,1670.25 Q827.5094,1669.8906 827.3219,1669.7031 Q826.9938,1669.3281 826.3844,1669.1094 Q825.775,1668.8906 825.15,1668.8906 Q824.3844,1668.8906 823.7438,1669.2188 Q823.1188,1669.5469 822.6188,1670.2969 Q822.1344,1671.0469 822.1344,1672.0781 L822.1344,1673.1719 Q822.1344,1674.4063 823.025,1675.2344 Q823.9156,1676.0469 825.5094,1676.0469 Q826.4469,1676.0469 827.1031,1675.7969 Q827.4938,1675.6406 827.9156,1675.2031 Q828.1813,1674.9375 828.3219,1674.8594 Q828.4781,1674.7813 828.6813,1674.7813 Q829.0094,1674.7813 829.2594,1675.0469 Q829.525,1675.2969 829.525,1675.6406 Q829.525,1675.9844 829.1813,1676.3906 Q828.6813,1676.9688 827.8844,1677.2969 Q826.8063,1677.75 825.5094,1677.75 Q823.9938,1677.75 822.7906,1677.125 Q821.8063,1676.625 821.1188,1675.5625 Q820.4313,1674.4844 820.4313,1673.2031 L820.4313,1672.0469 Q820.4313,1670.7188 821.0406,1669.5781 Q821.6656,1668.4219 822.7594,1667.8125 Q823.8531,1667.1875 825.0875,1667.1875 Q825.8219,1667.1875 826.4625,1667.3594 Q827.1188,1667.5156 827.6656,1667.875 Z " fill="#000000"/><ellipse cx="843.9" cy="1671.5" fill="#84BE84" rx="3" ry="3" style="stroke:#038048;stroke-width:1.0;"/><text fill="#000000" font-family="sans-serif" font-size="12" lengthAdjust="spacing" textLength="66" x="849.9" y="1676.9102">InterfaceDto</text><!--MD5=[98b6c63f53bc3fd77c1d78d229658bfd]
class MethodDto--><rect codeLine="70" fill="#FEFECE" filter="url(#f1vwjffpa9zb68)" height="144.8516" id="MethodDto" style="stroke:#A80036;stroke-width:1.5;" width="178" x="401.4" y="1406"/><ellipse cx="451.15" cy="1422" fill="#ADD1B2" rx="11" ry="11" style="stroke:#A80036;stroke-width:1.0;"/><path d="M453.9156,1417.875 Q454.0719,1417.6563 454.2594,1417.5469 Q454.4469,1417.4375 454.6656,1417.4375 Q455.0406,1417.4375 455.275,1417.7031 Q455.5094,1417.9531 455.5094,1418.5625 L455.5094,1420.0156 Q455.5094,1420.625 455.275,1420.8906 Q455.0406,1421.1563 454.6656,1421.1563 Q454.3219,1421.1563 454.1188,1420.9531 Q453.9156,1420.7656 453.8063,1420.25 Q453.7594,1419.8906 453.5719,1419.7031 Q453.2438,1419.3281 452.6344,1419.1094 Q452.025,1418.8906 451.4,1418.8906 Q450.6344,1418.8906 449.9938,1419.2188 Q449.3688,1419.5469 448.8688,1420.2969 Q448.3844,1421.0469 448.3844,1422.0781 L448.3844,1423.1719 Q448.3844,1424.4063 449.275,1425.2344 Q450.1656,1426.0469 451.7594,1426.0469 Q452.6969,1426.0469 453.3531,1425.7969 Q453.7438,1425.6406 454.1656,1425.2031 Q454.4313,1424.9375 454.5719,1424.8594 Q454.7281,1424.7813 454.9313,1424.7813 Q455.2594,1424.7813 455.5094,1425.0469 Q455.775,1425.2969 455.775,1425.6406 Q455.775,1425.9844 455.4313,1426.3906 Q454.9313,1426.9688 454.1344,1427.2969 Q453.0563,1427.75 451.7594,1427.75 Q450.2438,1427.75 449.0406,1427.125 Q448.0563,1426.625 447.3688,1425.5625 Q446.6813,1424.4844 446.6813,1423.2031 L446.6813,1422.0469 Q446.6813,1420.7188 447.2906,1419.5781 Q447.9156,1418.4219 449.0094,1417.8125 Q450.1031,1417.1875 451.3375,1417.1875 Q452.0719,1417.1875 452.7125,1417.3594 Q453.3688,1417.5156 453.9156,1417.875 Z " fill="#000000"/><ellipse cx="476.65" cy="1421.5" fill="#84BE84" rx="3" ry="3" style="stroke:#038048;stroke-width:1.0;"/><text fill="#000000" font-family="sans-serif" font-size="12" lengthAdjust="spacing" textLength="59" x="482.65" y="1426.9102">MethodDto</text><line style="stroke:#A80036;stroke-width:1.5;" x1="402.4" x2="578.4" y1="1438" y2="1438"/><rect fill="none" height="6" style="stroke:#C82930;stroke-width:1.0;" width="6" x="409.4" y="1446"/><text fill="#000000" font-family="sans-serif" font-size="11" lengthAdjust="spacing" textLength="57" x="421.4" y="1453.4189">String name</text><rect fill="none" height="6" style="stroke:#C82930;stroke-width:1.0;" width="6" x="409.4" y="1459.8359"/><text fill="#000000" font-family="sans-serif" font-size="11" lengthAdjust="spacing" textLength="105" x="421.4" y="1467.2549">String accessModifier</text><rect fill="none" height="6" style="stroke:#C82930;stroke-width:1.0;" width="6" x="409.4" y="1473.6719"/><text fill="#000000" font-family="sans-serif" font-size="11" lengthAdjust="spacing" textLength="152" x="421.4" y="1481.0908">List&lt;ParameterDto&gt; parameters</text><rect fill="none" height="6" style="stroke:#C82930;stroke-width:1.0;" width="6" x="409.4" y="1487.5078"/><text fill="#000000" font-family="sans-serif" font-size="11" lengthAdjust="spacing" textLength="84" x="421.4" y="1494.9268">String returnType</text><rect fill="none" height="6" style="stroke:#C82930;stroke-width:1.0;" width="6" x="409.4" y="1501.3438"/><text fill="#000000" font-family="sans-serif" font-size="11" lengthAdjust="spacing" textLength="152" x="421.4" y="1508.7627">Boolean isReturnFromJavaCore</text><rect fill="none" height="6" style="stroke:#C82930;stroke-width:1.0;" width="6" x="409.4" y="1515.1797"/><text fill="#000000" font-family="sans-serif" font-size="11" lengthAdjust="spacing" textLength="75" x="421.4" y="1522.5986">String modifiers</text><line style="stroke:#A80036;stroke-width:1.5;" x1="402.4" x2="578.4" y1="1529.0156" y2="1529.0156"/><polygon fill="#4177AF" points="412.4,1536.0156,408.4,1542.0156,416.4,1542.0156" style="stroke:#1963A0;stroke-width:1.0;"/><text fill="#000000" font-family="sans-serif" font-size="11" lengthAdjust="spacing" textLength="79" x="421.4" y="1544.4346">String toString ()</text><!--MD5=[0a822579913a5f5f4fa5030bb626f2d9]
class ModifierEnum--><rect codeLine="80" fill="#FEFECE" filter="url(#f1vwjffpa9zb68)" height="53.8359" id="ModifierEnum" style="stroke:#A80036;stroke-width:1.5;" width="119" x="674.9" y="152"/><ellipse cx="689.9" cy="168" fill="#EB937F" rx="11" ry="11" style="stroke:#A80036;stroke-width:1.0;"/><path d="M688.7594,168.7969 L688.7594,171.2969 L693.0875,171.2969 L693.0875,170.375 Q693.0875,169.7656 693.3219,169.5 Q693.5719,169.2344 693.9469,169.2344 Q694.3219,169.2344 694.5563,169.5 Q694.7906,169.7656 694.7906,170.375 L694.7906,173 L686.7906,173 Q686.1656,173 685.9,172.7656 Q685.65,172.5313 685.65,172.1406 Q685.65,171.7656 685.9156,171.5313 Q686.1813,171.2969 686.7906,171.2969 L687.0563,171.2969 L687.0563,164.6406 L686.7906,164.6406 Q686.1656,164.6406 685.9,164.4063 Q685.65,164.1719 685.65,163.7813 Q685.65,163.4063 685.9,163.1719 Q686.1656,162.9375 686.7906,162.9375 L694.4156,162.9375 L694.4156,165.5313 Q694.4156,166.1406 694.1813,166.4063 Q693.9625,166.6563 693.5719,166.6563 Q693.1969,166.6563 692.9625,166.4063 Q692.7281,166.1406 692.7281,165.5313 L692.7281,164.6406 L688.7594,164.6406 L688.7594,167.0938 L690.2438,167.0938 Q690.2438,166.4375 690.3688,166.25 Q690.6344,165.8438 691.1031,165.8438 Q691.4781,165.8438 691.7125,166.1094 Q691.9469,166.3594 691.9469,166.9688 L691.9469,168.9375 Q691.9469,169.4844 691.8219,169.6719 Q691.5563,170.0625 691.1031,170.0625 Q690.6344,170.0625 690.3688,169.6563 Q690.2438,169.4688 690.2438,168.7969 L688.7594,168.7969 Z " fill="#000000"/><ellipse cx="708.9" cy="167.5" fill="#84BE84" rx="3" ry="3" style="stroke:#038048;stroke-width:1.0;"/><text fill="#000000" font-family="sans-serif" font-size="12" lengthAdjust="spacing" textLength="76" x="714.9" y="172.9102">ModifierEnum</text><line style="stroke:#A80036;stroke-width:1.5;" x1="675.9" x2="792.9" y1="184" y2="184"/><rect fill="none" height="6" style="stroke:#C82930;stroke-width:1.0;" width="6" x="682.9" y="192"/><text fill="#000000" font-family="sans-serif" font-size="11" lengthAdjust="spacing" textLength="69" x="694.9" y="199.4189">String modifier</text><!--MD5=[b42990f7a7d3650acbc29420386312ae]
class ParameterDto--><rect codeLine="85" fill="#FEFECE" filter="url(#f1vwjffpa9zb68)" height="89.5078" id="ParameterDto" style="stroke:#A80036;stroke-width:1.5;" width="146" x="432.4" y="420.5"/><ellipse cx="459.1" cy="436.5" fill="#ADD1B2" rx="11" ry="11" style="stroke:#A80036;stroke-width:1.0;"/><path d="M461.8656,432.375 Q462.0219,432.1563 462.2094,432.0469 Q462.3969,431.9375 462.6156,431.9375 Q462.9906,431.9375 463.225,432.2031 Q463.4594,432.4531 463.4594,433.0625 L463.4594,434.5156 Q463.4594,435.125 463.225,435.3906 Q462.9906,435.6563 462.6156,435.6563 Q462.2719,435.6563 462.0687,435.4531 Q461.8656,435.2656 461.7562,434.75 Q461.7094,434.3906 461.5219,434.2031 Q461.1937,433.8281 460.5844,433.6094 Q459.975,433.3906 459.35,433.3906 Q458.5844,433.3906 457.9437,433.7188 Q457.3187,434.0469 456.8187,434.7969 Q456.3344,435.5469 456.3344,436.5781 L456.3344,437.6719 Q456.3344,438.9063 457.225,439.7344 Q458.1156,440.5469 459.7094,440.5469 Q460.6469,440.5469 461.3031,440.2969 Q461.6937,440.1406 462.1156,439.7031 Q462.3812,439.4375 462.5219,439.3594 Q462.6781,439.2813 462.8812,439.2813 Q463.2094,439.2813 463.4594,439.5469 Q463.725,439.7969 463.725,440.1406 Q463.725,440.4844 463.3812,440.8906 Q462.8812,441.4688 462.0844,441.7969 Q461.0062,442.25 459.7094,442.25 Q458.1937,442.25 456.9906,441.625 Q456.0062,441.125 455.3187,440.0625 Q454.6312,438.9844 454.6312,437.7031 L454.6312,436.5469 Q454.6312,435.2188 455.2406,434.0781 Q455.8656,432.9219 456.9594,432.3125 Q458.0531,431.6875 459.2875,431.6875 Q460.0219,431.6875 460.6625,431.8594 Q461.3187,432.0156 461.8656,432.375 Z " fill="#000000"/><ellipse cx="480.7" cy="436" fill="#84BE84" rx="3" ry="3" style="stroke:#038048;stroke-width:1.0;"/><text fill="#000000" font-family="sans-serif" font-size="12" lengthAdjust="spacing" textLength="77" x="486.7" y="441.4102">ParameterDto</text><line style="stroke:#A80036;stroke-width:1.5;" x1="433.4" x2="577.4" y1="452.5" y2="452.5"/><rect fill="none" height="6" style="stroke:#C82930;stroke-width:1.0;" width="6" x="440.4" y="460.5"/><text fill="#000000" font-family="sans-serif" font-size="11" lengthAdjust="spacing" textLength="57" x="452.4" y="467.9189">String name</text><rect fill="none" height="6" style="stroke:#C82930;stroke-width:1.0;" width="6" x="440.4" y="474.3359"/><text fill="#000000" font-family="sans-serif" font-size="11" lengthAdjust="spacing" textLength="120" x="452.4" y="481.7549">Boolean isFromJavaCore</text><line style="stroke:#A80036;stroke-width:1.5;" x1="433.4" x2="577.4" y1="488.1719" y2="488.1719"/><polygon fill="#4177AF" points="443.4,495.1719,439.4,501.1719,447.4,501.1719" style="stroke:#1963A0;stroke-width:1.0;"/><text fill="#000000" font-family="sans-serif" font-size="11" lengthAdjust="spacing" textLength="79" x="452.4" y="503.5908">String toString ()</text><!--MD5=[84718776d214be480e4c259efcb737fc]
class Main--><rect codeLine="91" fill="#FEFECE" filter="url(#f1vwjffpa9zb68)" height="103.3438" id="Main" style="stroke:#A80036;stroke-width:1.5;" width="189" x="882.9" y="414"/><ellipse cx="954.65" cy="430" fill="#ADD1B2" rx="11" ry="11" style="stroke:#A80036;stroke-width:1.0;"/><path d="M957.4156,425.875 Q957.5719,425.6563 957.7594,425.5469 Q957.9469,425.4375 958.1656,425.4375 Q958.5406,425.4375 958.775,425.7031 Q959.0094,425.9531 959.0094,426.5625 L959.0094,428.0156 Q959.0094,428.625 958.775,428.8906 Q958.5406,429.1563 958.1656,429.1563 Q957.8219,429.1563 957.6188,428.9531 Q957.4156,428.7656 957.3063,428.25 Q957.2594,427.8906 957.0719,427.7031 Q956.7438,427.3281 956.1344,427.1094 Q955.525,426.8906 954.9,426.8906 Q954.1344,426.8906 953.4938,427.2188 Q952.8688,427.5469 952.3688,428.2969 Q951.8844,429.0469 951.8844,430.0781 L951.8844,431.1719 Q951.8844,432.4063 952.775,433.2344 Q953.6656,434.0469 955.2594,434.0469 Q956.1969,434.0469 956.8531,433.7969 Q957.2438,433.6406 957.6656,433.2031 Q957.9313,432.9375 958.0719,432.8594 Q958.2281,432.7813 958.4313,432.7813 Q958.7594,432.7813 959.0094,433.0469 Q959.275,433.2969 959.275,433.6406 Q959.275,433.9844 958.9313,434.3906 Q958.4313,434.9688 957.6344,435.2969 Q956.5563,435.75 955.2594,435.75 Q953.7438,435.75 952.5406,435.125 Q951.5563,434.625 950.8688,433.5625 Q950.1813,432.4844 950.1813,431.2031 L950.1813,430.0469 Q950.1813,428.7188 950.7906,427.5781 Q951.4156,426.4219 952.5094,425.8125 Q953.6031,425.1875 954.8375,425.1875 Q955.5719,425.1875 956.2125,425.3594 Q956.8688,425.5156 957.4156,425.875 Z " fill="#000000"/><ellipse cx="980.15" cy="429.5" fill="#84BE84" rx="3" ry="3" style="stroke:#038048;stroke-width:1.0;"/><text fill="#000000" font-family="sans-serif" font-size="12" lengthAdjust="spacing" textLength="26" x="986.15" y="434.9102">Main</text><line style="stroke:#A80036;stroke-width:1.5;" x1="883.9" x2="1070.9" y1="446" y2="446"/><rect fill="none" height="6" style="stroke:#C82930;stroke-width:1.0;" width="6" x="890.9" y="454"/><text fill="#000000" font-family="sans-serif" font-size="11" lengthAdjust="spacing" textLength="163" x="902.9" y="461.4189">AnalyzerService analyzerService</text><rect fill="none" height="6" style="stroke:#C82930;stroke-width:1.0;" width="6" x="890.9" y="467.8359"/><text fill="#000000" font-family="sans-serif" font-size="11" lengthAdjust="spacing" textLength="154" x="902.9" y="475.2549">DiagramService diagramService</text><line style="stroke:#A80036;stroke-width:1.5;" x1="883.9" x2="1070.9" y1="481.6719" y2="481.6719"/><polygon fill="#4177AF" points="893.9,488.6719,889.9,494.6719,897.9,494.6719" style="stroke:#1963A0;stroke-width:1.0;"/><text fill="#000000" font-family="sans-serif" font-size="11" lengthAdjust="spacing" text-decoration="underline" textLength="56" x="902.9" y="497.0908">void main ()</text><polygon fill="#4177AF" points="893.9,502.5078,889.9,508.5078,897.9,508.5078" style="stroke:#1963A0;stroke-width:1.0;"/><text fill="#000000" font-family="sans-serif" font-size="11" lengthAdjust="spacing" textLength="50" x="902.9" y="510.9268">void run ()</text><!--MD5=[34a2344cadfb5088924753e61221cd38]
class CommandLineRunner--><rect fill="#FEFECE" filter="url(#f1vwjffpa9zb68)" height="32" id="CommandLineRunner" style="stroke:#A80036;stroke-width:1.5;" width="156" x="899.4" y="163"/><ellipse cx="914.4" cy="179" fill="#B4A7E5" rx="11" ry="11" style="stroke:#A80036;stroke-width:1.0;"/><path d="M915.3531,175.6406 L915.3531,182.2969 L917.0719,182.2969 Q917.6813,182.2969 917.9469,182.5313 Q918.2125,182.7656 918.2125,183.1563 Q918.2125,183.5313 917.9469,183.7656 Q917.6813,184 917.0719,184 L911.9313,184 Q911.3219,184 911.0563,183.7656 Q910.7906,183.5313 910.7906,183.1406 Q910.7906,182.7656 911.0563,182.5313 Q911.3219,182.2969 911.9313,182.2969 L913.65,182.2969 L913.65,175.6406 L911.9313,175.6406 Q911.3219,175.6406 911.0563,175.4063 Q910.7906,175.1719 910.7906,174.7813 Q910.7906,174.4063 911.0563,174.1719 Q911.3219,173.9375 911.9313,173.9375 L917.0719,173.9375 Q917.6813,173.9375 917.9469,174.1719 Q918.2125,174.4063 918.2125,174.7813 Q918.2125,175.1719 917.9469,175.4063 Q917.6813,175.6406 917.0719,175.6406 L915.3531,175.6406 Z " fill="#000000"/><text fill="#000000" font-family="sans-serif" font-size="12" font-style="italic" lengthAdjust="spacing" textLength="124" x="928.4" y="183.9102">CommandLineRunner</text><!--MD5=[fedc6461aafa2713a93dd11e4ec640aa]
class AnalyzerService--><rect codeLine="100" fill="#FEFECE" filter="url(#f1vwjffpa9zb68)" height="53.8359" id="AnalyzerService" style="stroke:#A80036;stroke-width:1.5;" width="244" x="740.4" y="587"/><ellipse cx="807.65" cy="603" fill="#B4A7E5" rx="11" ry="11" style="stroke:#A80036;stroke-width:1.0;"/><path d="M808.6031,599.6406 L808.6031,606.2969 L810.3219,606.2969 Q810.9313,606.2969 811.1969,606.5313 Q811.4625,606.7656 811.4625,607.1563 Q811.4625,607.5313 811.1969,607.7656 Q810.9313,608 810.3219,608 L805.1813,608 Q804.5719,608 804.3063,607.7656 Q804.0406,607.5313 804.0406,607.1406 Q804.0406,606.7656 804.3063,606.5313 Q804.5719,606.2969 805.1813,606.2969 L806.9,606.2969 L806.9,599.6406 L805.1813,599.6406 Q804.5719,599.6406 804.3063,599.4063 Q804.0406,599.1719 804.0406,598.7813 Q804.0406,598.4063 804.3063,598.1719 Q804.5719,597.9375 805.1813,597.9375 L810.3219,597.9375 Q810.9313,597.9375 811.1969,598.1719 Q811.4625,598.4063 811.4625,598.7813 Q811.4625,599.1719 811.1969,599.4063 Q810.9313,599.6406 810.3219,599.6406 L808.6031,599.6406 Z " fill="#000000"/><ellipse cx="833.15" cy="602.5" fill="#84BE84" rx="3" ry="3" style="stroke:#038048;stroke-width:1.0;"/><text fill="#000000" font-family="sans-serif" font-size="12" font-style="italic" lengthAdjust="spacing" textLength="90" x="839.15" y="607.9102">AnalyzerService</text><line style="stroke:#A80036;stroke-width:1.5;" x1="741.4" x2="983.4" y1="619" y2="619"/><polygon fill="#4177AF" points="751.4,626,747.4,632,755.4,632" style="stroke:#1963A0;stroke-width:1.0;"/><text fill="#000000" font-family="sans-serif" font-size="11" lengthAdjust="spacing" textLength="218" x="760.4" y="634.4189">List&lt;DiagramObject&gt; analyzeFilesFromPath ()</text><!--MD5=[ddd807366d8e8bb5ac1ff1d2957402ed]
class DiagramService--><rect codeLine="148" fill="#FEFECE" filter="url(#f1vwjffpa9zb68)" height="67.6719" id="DiagramService" style="stroke:#A80036;stroke-width:1.5;" width="146" x="1019.4" y="580"/><ellipse cx="1040.7" cy="596" fill="#B4A7E5" rx="11" ry="11" style="stroke:#A80036;stroke-width:1.0;"/><path d="M1041.6531,592.6406 L1041.6531,599.2969 L1043.3719,599.2969 Q1043.9813,599.2969 1044.2469,599.5313 Q1044.5125,599.7656 1044.5125,600.1563 Q1044.5125,600.5313 1044.2469,600.7656 Q1043.9813,601 1043.3719,601 L1038.2313,601 Q1037.6219,601 1037.3563,600.7656 Q1037.0906,600.5313 1037.0906,600.1406 Q1037.0906,599.7656 1037.3563,599.5313 Q1037.6219,599.2969 1038.2313,599.2969 L1039.95,599.2969 L1039.95,592.6406 L1038.2313,592.6406 Q1037.6219,592.6406 1037.3563,592.4063 Q1037.0906,592.1719 1037.0906,591.7813 Q1037.0906,591.4063 1037.3563,591.1719 Q1037.6219,590.9375 1038.2313,590.9375 L1043.3719,590.9375 Q1043.9813,590.9375 1044.2469,591.1719 Q1044.5125,591.4063 1044.5125,591.7813 Q1044.5125,592.1719 1044.2469,592.4063 Q1043.9813,592.6406 1043.3719,592.6406 L1041.6531,592.6406 Z " fill="#000000"/><ellipse cx="1061.1" cy="595.5" fill="#84BE84" rx="3" ry="3" style="stroke:#038048;stroke-width:1.0;"/><text fill="#000000" font-family="sans-serif" font-size="12" font-style="italic" lengthAdjust="spacing" textLength="89" x="1067.1" y="600.9102">DiagramService</text><line style="stroke:#A80036;stroke-width:1.5;" x1="1020.4" x2="1164.4" y1="612" y2="612"/><polygon fill="#4177AF" points="1030.4,619,1026.4,625,1034.4,625" style="stroke:#1963A0;stroke-width:1.0;"/><text fill="#000000" font-family="sans-serif" font-size="11" lengthAdjust="spacing" textLength="120" x="1039.4" y="627.4189">void createDiagramFile ()</text><polygon fill="#4177AF" points="1030.4,632.8359,1026.4,638.8359,1034.4,638.8359" style="stroke:#1963A0;stroke-width:1.0;"/><text fill="#000000" font-family="sans-serif" font-size="11" lengthAdjust="spacing" textLength="120" x="1039.4" y="641.2549">void createDiagramFile ()</text><!--MD5=[13132dba54810b9cd4b489b806b87d95]
class AnalyzerServiceImpl--><rect codeLine="106" fill="#FEFECE" filter="url(#f1vwjffpa9zb68)" height="172.5234" id="AnalyzerServiceImpl" style="stroke:#A80036;stroke-width:1.5;" width="295" x="460.9" y="738.5"/><ellipse cx="544.15" cy="754.5" fill="#ADD1B2" rx="11" ry="11" style="stroke:#A80036;stroke-width:1.0;"/><path d="M546.9156,750.375 Q547.0719,750.1563 547.2594,750.0469 Q547.4469,749.9375 547.6656,749.9375 Q548.0406,749.9375 548.275,750.2031 Q548.5094,750.4531 548.5094,751.0625 L548.5094,752.5156 Q548.5094,753.125 548.275,753.3906 Q548.0406,753.6563 547.6656,753.6563 Q547.3219,753.6563 547.1188,753.4531 Q546.9156,753.2656 546.8063,752.75 Q546.7594,752.3906 546.5719,752.2031 Q546.2438,751.8281 545.6344,751.6094 Q545.025,751.3906 544.4,751.3906 Q543.6344,751.3906 542.9938,751.7188 Q542.3688,752.0469 541.8688,752.7969 Q541.3844,753.5469 541.3844,754.5781 L541.3844,755.6719 Q541.3844,756.9063 542.275,757.7344 Q543.1656,758.5469 544.7594,758.5469 Q545.6969,758.5469 546.3531,758.2969 Q546.7438,758.1406 547.1656,757.7031 Q547.4313,757.4375 547.5719,757.3594 Q547.7281,757.2813 547.9313,757.2813 Q548.2594,757.2813 548.5094,757.5469 Q548.775,757.7969 548.775,758.1406 Q548.775,758.4844 548.4313,758.8906 Q547.9313,759.4688 547.1344,759.7969 Q546.0563,760.25 544.7594,760.25 Q543.2438,760.25 542.0406,759.625 Q541.0563,759.125 540.3688,758.0625 Q539.6813,756.9844 539.6813,755.7031 L539.6813,754.5469 Q539.6813,753.2188 540.2906,752.0781 Q540.9156,750.9219 542.0094,750.3125 Q543.1031,749.6875 544.3375,749.6875 Q545.0719,749.6875 545.7125,749.8594 Q546.3688,750.0156 546.9156,750.375 Z " fill="#000000"/><ellipse cx="569.65" cy="754" fill="#84BE84" rx="3" ry="3" style="stroke:#038048;stroke-width:1.0;"/><text fill="#000000" font-family="sans-serif" font-size="12" lengthAdjust="spacing" textLength="109" x="575.65" y="759.4102">AnalyzerServiceImpl</text><line style="stroke:#A80036;stroke-width:1.5;" x1="461.9" x2="754.9" y1="770.5" y2="770.5"/><rect fill="none" height="6" style="stroke:#C82930;stroke-width:1.0;" width="6" x="468.9" y="778.5"/><text fill="#000000" font-family="sans-serif" font-size="11" lengthAdjust="spacing" textLength="107" x="480.9" y="785.9189">FileService fileService</text><rect fill="none" height="6" style="stroke:#C82930;stroke-width:1.0;" width="6" x="468.9" y="792.3359"/><text fill="#000000" font-family="sans-serif" font-size="11" lengthAdjust="spacing" textLength="110" x="480.9" y="799.7549">JavaParser javaParser</text><rect fill="none" height="6" style="stroke:#C82930;stroke-width:1.0;" width="6" x="468.9" y="806.1719"/><text fill="#000000" font-family="sans-serif" font-size="11" lengthAdjust="spacing" textLength="130" x="480.9" y="813.5908">ClassService classService</text><line style="stroke:#A80036;stroke-width:1.5;" x1="461.9" x2="754.9" y1="820.0078" y2="820.0078"/><polygon fill="#4177AF" points="471.9,827.0078,467.9,833.0078,475.9,833.0078" style="stroke:#1963A0;stroke-width:1.0;"/><text fill="#000000" font-family="sans-serif" font-size="11" lengthAdjust="spacing" textLength="218" x="480.9" y="835.4268">List&lt;DiagramObject&gt; analyzeFilesFromPath ()</text><polygon fill="#4177AF" points="471.9,840.8438,467.9,846.8438,475.9,846.8438" style="stroke:#1963A0;stroke-width:1.0;"/><text fill="#000000" font-family="sans-serif" font-size="11" lengthAdjust="spacing" textLength="140" x="480.9" y="849.2627">Consumer&lt;Path&gt; parseFile ()</text><polygon fill="#4177AF" points="471.9,854.6797,467.9,860.6797,475.9,860.6797" style="stroke:#1963A0;stroke-width:1.0;"/><text fill="#000000" font-family="sans-serif" font-size="11" lengthAdjust="spacing" textLength="269" x="480.9" y="863.0986">Optional&lt;CompilationUnit&gt; getCompilationUnitFromPath ()</text><polygon fill="#4177AF" points="471.9,868.5156,467.9,874.5156,475.9,874.5156" style="stroke:#1963A0;stroke-width:1.0;"/><text fill="#000000" font-family="sans-serif" font-size="11" lengthAdjust="spacing" textLength="223" x="480.9" y="876.9346">List&lt;DiagramObject&gt; analyzeCompilationUnit ()</text><polygon fill="#4177AF" points="471.9,882.3516,467.9,888.3516,475.9,888.3516" style="stroke:#1963A0;stroke-width:1.0;"/><text fill="#000000" font-family="sans-serif" font-size="11" lengthAdjust="spacing" textLength="241" x="480.9" y="890.7705">List&lt;DiagramObject&gt; processClassOrInterfaces ()</text><polygon fill="#4177AF" points="471.9,896.1875,467.9,902.1875,475.9,902.1875" style="stroke:#1963A0;stroke-width:1.0;"/><text fill="#000000" font-family="sans-serif" font-size="11" lengthAdjust="spacing" textLength="185" x="480.9" y="904.6064">List&lt;DiagramObject&gt; processEnums ()</text><!--MD5=[3f7923c5962403cc19ad9d36647dd0a5]
class FileService--><rect codeLine="184" fill="#FEFECE" filter="url(#f1vwjffpa9zb68)" height="53.8359" id="FileService" style="stroke:#A80036;stroke-width:1.5;" width="164" x="188.4" y="1009"/><ellipse cx="230.4" cy="1025" fill="#B4A7E5" rx="11" ry="11" style="stroke:#A80036;stroke-width:1.0;"/><path d="M231.3531,1021.6406 L231.3531,1028.2969 L233.0719,1028.2969 Q233.6813,1028.2969 233.9469,1028.5313 Q234.2125,1028.7656 234.2125,1029.1563 Q234.2125,1029.5313 233.9469,1029.7656 Q233.6813,1030 233.0719,1030 L227.9313,1030 Q227.3219,1030 227.0563,1029.7656 Q226.7906,1029.5313 226.7906,1029.1406 Q226.7906,1028.7656 227.0563,1028.5313 Q227.3219,1028.2969 227.9313,1028.2969 L229.65,1028.2969 L229.65,1021.6406 L227.9313,1021.6406 Q227.3219,1021.6406 227.0563,1021.4063 Q226.7906,1021.1719 226.7906,1020.7813 Q226.7906,1020.4063 227.0563,1020.1719 Q227.3219,1019.9375 227.9313,1019.9375 L233.0719,1019.9375 Q233.6813,1019.9375 233.9469,1020.1719 Q234.2125,1020.4063 234.2125,1020.7813 Q234.2125,1021.1719 233.9469,1021.4063 Q233.6813,1021.6406 233.0719,1021.6406 L231.3531,1021.6406 Z " fill="#000000"/><ellipse cx="255.4" cy="1024.5" fill="#84BE84" rx="3" ry="3" style="stroke:#038048;stroke-width:1.0;"/><text fill="#000000" font-family="sans-serif" font-size="12" font-style="italic" lengthAdjust="spacing" textLength="61" x="261.4" y="1029.9102">FileService</text><line style="stroke:#A80036;stroke-width:1.5;" x1="189.4" x2="351.4" y1="1041" y2="1041"/><polygon fill="#4177AF" points="199.4,1048,195.4,1054,203.4,1054" style="stroke:#1963A0;stroke-width:1.0;"/><text fill="#000000" font-family="sans-serif" font-size="11" lengthAdjust="spacing" textLength="138" x="208.4" y="1056.4189">List&lt;Path&gt; iterateDirectory ()</text><!--MD5=[580d062a823ec63ec55e6ab7a616949e]
class ClassService--><rect codeLine="122" fill="#FEFECE" filter="url(#f1vwjffpa9zb68)" height="67.6719" id="ClassService" style="stroke:#A80036;stroke-width:1.5;" width="230" x="493.4" y="1002"/><ellipse cx="562.65" cy="1018" fill="#B4A7E5" rx="11" ry="11" style="stroke:#A80036;stroke-width:1.0;"/><path d="M563.6031,1014.6406 L563.6031,1021.2969 L565.3219,1021.2969 Q565.9313,1021.2969 566.1969,1021.5313 Q566.4625,1021.7656 566.4625,1022.1563 Q566.4625,1022.5313 566.1969,1022.7656 Q565.9313,1023 565.3219,1023 L560.1813,1023 Q559.5719,1023 559.3063,1022.7656 Q559.0406,1022.5313 559.0406,1022.1406 Q559.0406,1021.7656 559.3063,1021.5313 Q559.5719,1021.2969 560.1813,1021.2969 L561.9,1021.2969 L561.9,1014.6406 L560.1813,1014.6406 Q559.5719,1014.6406 559.3063,1014.4063 Q559.0406,1014.1719 559.0406,1013.7813 Q559.0406,1013.4063 559.3063,1013.1719 Q559.5719,1012.9375 560.1813,1012.9375 L565.3219,1012.9375 Q565.9313,1012.9375 566.1969,1013.1719 Q566.4625,1013.4063 566.4625,1013.7813 Q566.4625,1014.1719 566.1969,1014.4063 Q565.9313,1014.6406 565.3219,1014.6406 L563.6031,1014.6406 Z " fill="#000000"/><ellipse cx="588.15" cy="1017.5" fill="#84BE84" rx="3" ry="3" style="stroke:#038048;stroke-width:1.0;"/><text fill="#000000" font-family="sans-serif" font-size="12" font-style="italic" lengthAdjust="spacing" textLength="72" x="594.15" y="1022.9102">ClassService</text><line style="stroke:#A80036;stroke-width:1.5;" x1="494.4" x2="722.4" y1="1034" y2="1034"/><polygon fill="#4177AF" points="504.4,1041,500.4,1047,508.4,1047" style="stroke:#1963A0;stroke-width:1.0;"/><text fill="#000000" font-family="sans-serif" font-size="11" lengthAdjust="spacing" textLength="148" x="513.4" y="1049.4189">DiagramObject analyzeEnum ()</text><polygon fill="#4177AF" points="504.4,1054.8359,500.4,1060.8359,508.4,1060.8359" style="stroke:#1963A0;stroke-width:1.0;"/><text fill="#000000" font-family="sans-serif" font-size="11" lengthAdjust="spacing" textLength="204" x="513.4" y="1063.2549">DiagramObject analyzeClassOrInterface ()</text><!--MD5=[f878e6208305f3f8606b62288402605a]
class ClassServiceImpl--><rect codeLine="129" fill="#FEFECE" filter="url(#f1vwjffpa9zb68)" height="200.1953" id="ClassServiceImpl" style="stroke:#A80036;stroke-width:1.5;" width="330" x="375.4" y="1130"/><ellipse cx="482.15" cy="1146" fill="#ADD1B2" rx="11" ry="11" style="stroke:#A80036;stroke-width:1.0;"/><path d="M484.9156,1141.875 Q485.0719,1141.6563 485.2594,1141.5469 Q485.4469,1141.4375 485.6656,1141.4375 Q486.0406,1141.4375 486.275,1141.7031 Q486.5094,1141.9531 486.5094,1142.5625 L486.5094,1144.0156 Q486.5094,1144.625 486.275,1144.8906 Q486.0406,1145.1563 485.6656,1145.1563 Q485.3219,1145.1563 485.1188,1144.9531 Q484.9156,1144.7656 484.8063,1144.25 Q484.7594,1143.8906 484.5719,1143.7031 Q484.2438,1143.3281 483.6344,1143.1094 Q483.025,1142.8906 482.4,1142.8906 Q481.6344,1142.8906 480.9938,1143.2188 Q480.3688,1143.5469 479.8688,1144.2969 Q479.3844,1145.0469 479.3844,1146.0781 L479.3844,1147.1719 Q479.3844,1148.4063 480.275,1149.2344 Q481.1656,1150.0469 482.7594,1150.0469 Q483.6969,1150.0469 484.3531,1149.7969 Q484.7438,1149.6406 485.1656,1149.2031 Q485.4313,1148.9375 485.5719,1148.8594 Q485.7281,1148.7813 485.9313,1148.7813 Q486.2594,1148.7813 486.5094,1149.0469 Q486.775,1149.2969 486.775,1149.6406 Q486.775,1149.9844 486.4313,1150.3906 Q485.9313,1150.9688 485.1344,1151.2969 Q484.0563,1151.75 482.7594,1151.75 Q481.2438,1151.75 480.0406,1151.125 Q479.0563,1150.625 478.3688,1149.5625 Q477.6813,1148.4844 477.6813,1147.2031 L477.6813,1146.0469 Q477.6813,1144.7188 478.2906,1143.5781 Q478.9156,1142.4219 480.0094,1141.8125 Q481.1031,1141.1875 482.3375,1141.1875 Q483.0719,1141.1875 483.7125,1141.3594 Q484.3688,1141.5156 484.9156,1141.875 Z " fill="#000000"/><ellipse cx="507.65" cy="1145.5" fill="#84BE84" rx="3" ry="3" style="stroke:#038048;stroke-width:1.0;"/><text fill="#000000" font-family="sans-serif" font-size="12" lengthAdjust="spacing" textLength="97" x="513.65" y="1150.9102">ClassServiceImpl</text><line style="stroke:#A80036;stroke-width:1.5;" x1="376.4" x2="704.4" y1="1162" y2="1162"/><rect fill="none" height="6" style="stroke:#C82930;stroke-width:1.0;" width="6" x="383.4" y="1170"/><text fill="#000000" font-family="sans-serif" font-size="11" lengthAdjust="spacing" textLength="119" x="395.4" y="1177.4189">FieldService fieldService</text><rect fill="none" height="6" style="stroke:#C82930;stroke-width:1.0;" width="6" x="383.4" y="1183.8359"/><text fill="#000000" font-family="sans-serif" font-size="11" lengthAdjust="spacing" textLength="159" x="395.4" y="1191.2549">PackageService packageService</text><line style="stroke:#A80036;stroke-width:1.5;" x1="376.4" x2="704.4" y1="1197.6719" y2="1197.6719"/><polygon fill="#4177AF" points="386.4,1204.6719,382.4,1210.6719,390.4,1210.6719" style="stroke:#1963A0;stroke-width:1.0;"/><text fill="#000000" font-family="sans-serif" font-size="11" lengthAdjust="spacing" textLength="148" x="395.4" y="1213.0908">DiagramObject analyzeEnum ()</text><polygon fill="#4177AF" points="386.4,1218.5078,382.4,1224.5078,390.4,1224.5078" style="stroke:#1963A0;stroke-width:1.0;"/><text fill="#000000" font-family="sans-serif" font-size="11" lengthAdjust="spacing" textLength="204" x="395.4" y="1226.9268">DiagramObject analyzeClassOrInterface ()</text><polygon fill="#4177AF" points="386.4,1232.3438,382.4,1238.3438,390.4,1238.3438" style="stroke:#1963A0;stroke-width:1.0;"/><text fill="#000000" font-family="sans-serif" font-size="11" lengthAdjust="spacing" textLength="140" x="395.4" y="1240.7627">void processDiagramClass ()</text><polygon fill="#4177AF" points="386.4,1246.1797,382.4,1252.1797,390.4,1252.1797" style="stroke:#1963A0;stroke-width:1.0;"/><text fill="#000000" font-family="sans-serif" font-size="11" lengthAdjust="spacing" textLength="109" x="395.4" y="1254.5986">String processName ()</text><polygon fill="#4177AF" points="386.4,1260.0156,382.4,1266.0156,390.4,1266.0156" style="stroke:#1963A0;stroke-width:1.0;"/><text fill="#000000" font-family="sans-serif" font-size="11" lengthAdjust="spacing" textLength="203" x="395.4" y="1268.4346">List&lt;MethodDto&gt; parseMethodSignature ()</text><polygon fill="#4177AF" points="386.4,1273.8516,382.4,1279.8516,390.4,1279.8516" style="stroke:#1963A0;stroke-width:1.0;"/><text fill="#000000" font-family="sans-serif" font-size="11" lengthAdjust="spacing" textLength="193" x="395.4" y="1282.2705">MethodDto createFullMethodSignature ()</text><polygon fill="#4177AF" points="386.4,1287.6875,382.4,1293.6875,390.4,1293.6875" style="stroke:#1963A0;stroke-width:1.0;"/><text fill="#000000" font-family="sans-serif" font-size="11" lengthAdjust="spacing" textLength="304" x="395.4" y="1296.1064">Function&lt;TypeParameter,ParameterDto&gt; createParameterDto ()</text><polygon fill="#4177AF" points="386.4,1301.5234,382.4,1307.5234,390.4,1307.5234" style="stroke:#1963A0;stroke-width:1.0;"/><text fill="#000000" font-family="sans-serif" font-size="11" lengthAdjust="spacing" textLength="164" x="395.4" y="1309.9424">List&lt;FieldDto&gt; parseClassFields ()</text><polygon fill="#4177AF" points="386.4,1315.3594,382.4,1321.3594,390.4,1321.3594" style="stroke:#1963A0;stroke-width:1.0;"/><text fill="#000000" font-family="sans-serif" font-size="11" lengthAdjust="spacing" textLength="208" x="395.4" y="1323.7783">List&lt;String&gt; parseClassNodeListToString ()</text><!--MD5=[155d3bc40bbc1136122db8f6f8461769]
class FieldService--><rect codeLine="172" fill="#FEFECE" filter="url(#f1vwjffpa9zb68)" height="53.8359" id="FieldService" style="stroke:#A80036;stroke-width:1.5;" width="120" x="614.4" y="1451.5"/><ellipse cx="633.45" cy="1467.5" fill="#B4A7E5" rx="11" ry="11" style="stroke:#A80036;stroke-width:1.0;"/><path d="M634.4031,1464.1406 L634.4031,1470.7969 L636.1219,1470.7969 Q636.7312,1470.7969 636.9969,1471.0313 Q637.2625,1471.2656 637.2625,1471.6563 Q637.2625,1472.0313 636.9969,1472.2656 Q636.7312,1472.5 636.1219,1472.5 L630.9812,1472.5 Q630.3719,1472.5 630.1062,1472.2656 Q629.8406,1472.0313 629.8406,1471.6406 Q629.8406,1471.2656 630.1062,1471.0313 Q630.3719,1470.7969 630.9812,1470.7969 L632.7,1470.7969 L632.7,1464.1406 L630.9812,1464.1406 Q630.3719,1464.1406 630.1062,1463.9063 Q629.8406,1463.6719 629.8406,1463.2813 Q629.8406,1462.9063 630.1062,1462.6719 Q630.3719,1462.4375 630.9812,1462.4375 L636.1219,1462.4375 Q636.7312,1462.4375 636.9969,1462.6719 Q637.2625,1462.9063 637.2625,1463.2813 Q637.2625,1463.6719 636.9969,1463.9063 Q636.7312,1464.1406 636.1219,1464.1406 L634.4031,1464.1406 Z " fill="#000000"/><ellipse cx="653.35" cy="1467" fill="#84BE84" rx="3" ry="3" style="stroke:#038048;stroke-width:1.0;"/><text fill="#000000" font-family="sans-serif" font-size="12" font-style="italic" lengthAdjust="spacing" textLength="68" x="659.35" y="1472.4102">FieldService</text><line style="stroke:#A80036;stroke-width:1.5;" x1="615.4" x2="733.4" y1="1483.5" y2="1483.5"/><polygon fill="#4177AF" points="625.4,1490.5,621.4,1496.5,629.4,1496.5" style="stroke:#1963A0;stroke-width:1.0;"/><text fill="#000000" font-family="sans-serif" font-size="11" lengthAdjust="spacing" textLength="94" x="634.4" y="1498.9189">void analyzeField ()</text><!--MD5=[20ad6fd4a1fccefb2a8227075293d403]
class PackageService--><rect codeLine="197" fill="#FEFECE" filter="url(#f1vwjffpa9zb68)" height="53.8359" id="PackageService" style="stroke:#A80036;stroke-width:1.5;" width="156" x="281.4" y="1777"/><ellipse cx="306.75" cy="1793" fill="#B4A7E5" rx="11" ry="11" style="stroke:#A80036;stroke-width:1.0;"/><path d="M307.7031,1789.6406 L307.7031,1796.2969 L309.4219,1796.2969 Q310.0313,1796.2969 310.2969,1796.5313 Q310.5625,1796.7656 310.5625,1797.1563 Q310.5625,1797.5313 310.2969,1797.7656 Q310.0313,1798 309.4219,1798 L304.2813,1798 Q303.6719,1798 303.4063,1797.7656 Q303.1406,1797.5313 303.1406,1797.1406 Q303.1406,1796.7656 303.4063,1796.5313 Q303.6719,1796.2969 304.2813,1796.2969 L306,1796.2969 L306,1789.6406 L304.2813,1789.6406 Q303.6719,1789.6406 303.4063,1789.4063 Q303.1406,1789.1719 303.1406,1788.7813 Q303.1406,1788.4063 303.4063,1788.1719 Q303.6719,1787.9375 304.2813,1787.9375 L309.4219,1787.9375 Q310.0313,1787.9375 310.2969,1788.1719 Q310.5625,1788.4063 310.5625,1788.7813 Q310.5625,1789.1719 310.2969,1789.4063 Q310.0313,1789.6406 309.4219,1789.6406 L307.7031,1789.6406 Z " fill="#000000"/><ellipse cx="328.05" cy="1792.5" fill="#84BE84" rx="3" ry="3" style="stroke:#038048;stroke-width:1.0;"/><text fill="#000000" font-family="sans-serif" font-size="12" font-style="italic" lengthAdjust="spacing" textLength="90" x="334.05" y="1797.9102">PackageService</text><line style="stroke:#A80036;stroke-width:1.5;" x1="282.4" x2="436.4" y1="1809" y2="1809"/><polygon fill="#4177AF" points="292.4,1816,288.4,1822,296.4,1822" style="stroke:#1963A0;stroke-width:1.0;"/><text fill="#000000" font-family="sans-serif" font-size="11" lengthAdjust="spacing" textLength="130" x="301.4" y="1824.4189">boolean isjavaCoreClass ()</text><!--MD5=[8c4e56a5f527e287c98382bbdaea31e9]
class DiagramServiceImpl--><rect codeLine="154" fill="#FEFECE" filter="url(#f1vwjffpa9zb68)" height="233.7031" id="DiagramServiceImpl" style="stroke:#A80036;stroke-width:1.5;" width="203" x="990.9" y="708"/><ellipse cx="1027.5" cy="724" fill="#ADD1B2" rx="11" ry="11" style="stroke:#A80036;stroke-width:1.0;"/><path d="M1030.2656,719.875 Q1030.4219,719.6563 1030.6094,719.5469 Q1030.7969,719.4375 1031.0156,719.4375 Q1031.3906,719.4375 1031.625,719.7031 Q1031.8594,719.9531 1031.8594,720.5625 L1031.8594,722.0156 Q1031.8594,722.625 1031.625,722.8906 Q1031.3906,723.1563 1031.0156,723.1563 Q1030.6719,723.1563 1030.4688,722.9531 Q1030.2656,722.7656 1030.1563,722.25 Q1030.1094,721.8906 1029.9219,721.7031 Q1029.5938,721.3281 1028.9844,721.1094 Q1028.375,720.8906 1027.75,720.8906 Q1026.9844,720.8906 1026.3438,721.2188 Q1025.7188,721.5469 1025.2188,722.2969 Q1024.7344,723.0469 1024.7344,724.0781 L1024.7344,725.1719 Q1024.7344,726.4063 1025.625,727.2344 Q1026.5156,728.0469 1028.1094,728.0469 Q1029.0469,728.0469 1029.7031,727.7969 Q1030.0938,727.6406 1030.5156,727.2031 Q1030.7813,726.9375 1030.9219,726.8594 Q1031.0781,726.7813 1031.2813,726.7813 Q1031.6094,726.7813 1031.8594,727.0469 Q1032.125,727.2969 1032.125,727.6406 Q1032.125,727.9844 1031.7813,728.3906 Q1031.2813,728.9688 1030.4844,729.2969 Q1029.4063,729.75 1028.1094,729.75 Q1026.5938,729.75 1025.3906,729.125 Q1024.4063,728.625 1023.7188,727.5625 Q1023.0313,726.4844 1023.0313,725.2031 L1023.0313,724.0469 Q1023.0313,722.7188 1023.6406,721.5781 Q1024.2656,720.4219 1025.3594,719.8125 Q1026.4531,719.1875 1027.6875,719.1875 Q1028.4219,719.1875 1029.0625,719.3594 Q1029.7188,719.5156 1030.2656,719.875 Z " fill="#000000"/><ellipse cx="1051.3" cy="723.5" fill="#84BE84" rx="3" ry="3" style="stroke:#038048;stroke-width:1.0;"/><text fill="#000000" font-family="sans-serif" font-size="12" lengthAdjust="spacing" textLength="112" x="1057.3" y="728.9102">DiagramServiceImpl</text><line style="stroke:#A80036;stroke-width:1.5;" x1="991.9" x2="1192.9" y1="740" y2="740"/><polygon fill="#4177AF" points="1001.9,747,997.9,753,1005.9,753" style="stroke:#1963A0;stroke-width:1.0;"/><text fill="#000000" font-family="sans-serif" font-size="11" lengthAdjust="spacing" textLength="120" x="1010.9" y="755.4189">void createDiagramFile ()</text><polygon fill="#4177AF" points="1001.9,760.8359,997.9,766.8359,1005.9,766.8359" style="stroke:#1963A0;stroke-width:1.0;"/><text fill="#000000" font-family="sans-serif" font-size="11" lengthAdjust="spacing" textLength="120" x="1010.9" y="769.2549">void createDiagramFile ()</text><polygon fill="#4177AF" points="1001.9,774.6719,997.9,780.6719,1005.9,780.6719" style="stroke:#1963A0;stroke-width:1.0;"/><text fill="#000000" font-family="sans-serif" font-size="11" lengthAdjust="spacing" textLength="143" x="1010.9" y="783.0908">void createJavaDiagramFile ()</text><polygon fill="#4177AF" points="1001.9,788.5078,997.9,794.5078,1005.9,794.5078" style="stroke:#1963A0;stroke-width:1.0;"/><text fill="#000000" font-family="sans-serif" font-size="11" lengthAdjust="spacing" textLength="100" x="1010.9" y="796.9268">void createSvgFile ()</text><polygon fill="#4177AF" points="1001.9,802.3438,997.9,808.3438,1005.9,808.3438" style="stroke:#1963A0;stroke-width:1.0;"/><text fill="#000000" font-family="sans-serif" font-size="11" lengthAdjust="spacing" textLength="154" x="1010.9" y="810.7627">String createfullDiagramString ()</text><polygon fill="#4177AF" points="1001.9,816.1797,997.9,822.1797,1005.9,822.1797" style="stroke:#1963A0;stroke-width:1.0;"/><text fill="#000000" font-family="sans-serif" font-size="11" lengthAdjust="spacing" textLength="148" x="1010.9" y="824.5986">List&lt;String&gt; convertToString ()</text><polygon fill="#4177AF" points="1001.9,830.0156,997.9,836.0156,1005.9,836.0156" style="stroke:#1963A0;stroke-width:1.0;"/><text fill="#000000" font-family="sans-serif" font-size="11" lengthAdjust="spacing" textLength="111" x="1010.9" y="838.4346">void addAggregation ()</text><polygon fill="#4177AF" points="1001.9,843.8516,997.9,849.8516,1005.9,849.8516" style="stroke:#1963A0;stroke-width:1.0;"/><text fill="#000000" font-family="sans-serif" font-size="11" lengthAdjust="spacing" textLength="152" x="1010.9" y="852.2705">List&lt;String&gt; processMethods ()</text><polygon fill="#4177AF" points="1001.9,857.6875,997.9,863.6875,1005.9,863.6875" style="stroke:#1963A0;stroke-width:1.0;"/><text fill="#000000" font-family="sans-serif" font-size="11" lengthAdjust="spacing" textLength="81" x="1010.9" y="866.1064">String getType ()</text><polygon fill="#4177AF" points="1001.9,871.5234,997.9,877.5234,1005.9,877.5234" style="stroke:#1963A0;stroke-width:1.0;"/><text fill="#000000" font-family="sans-serif" font-size="11" lengthAdjust="spacing" textLength="129" x="1010.9" y="879.9424">String createFieldsString ()</text><polygon fill="#4177AF" points="1001.9,885.3594,997.9,891.3594,1005.9,891.3594" style="stroke:#1963A0;stroke-width:1.0;"/><text fill="#000000" font-family="sans-serif" font-size="11" lengthAdjust="spacing" textLength="108" x="1010.9" y="893.7783">String parseModifier ()</text><polygon fill="#4177AF" points="1001.9,899.1953,997.9,905.1953,1005.9,905.1953" style="stroke:#1963A0;stroke-width:1.0;"/><text fill="#000000" font-family="sans-serif" font-size="11" lengthAdjust="spacing" textLength="139" x="1010.9" y="907.6143">String parseAbstractStatic ()</text><polygon fill="#4177AF" points="1001.9,913.0313,997.9,919.0313,1005.9,919.0313" style="stroke:#1963A0;stroke-width:1.0;"/><text fill="#000000" font-family="sans-serif" font-size="11" lengthAdjust="spacing" textLength="177" x="1010.9" y="921.4502">String createExtendsOrImplements ()</text><polygon fill="#4177AF" points="1001.9,926.8672,997.9,932.8672,1005.9,932.8672" style="stroke:#1963A0;stroke-width:1.0;"/><text fill="#000000" font-family="sans-serif" font-size="11" lengthAdjust="spacing" textLength="164" x="1010.9" y="935.2861">String createFullStringClassLine ()</text><!--MD5=[2ae82bd4f0e100a18cbc7586011d99da]
class FieldServiceImpl--><rect codeLine="177" fill="#FEFECE" filter="url(#f1vwjffpa9zb68)" height="89.5078" id="FieldServiceImpl" style="stroke:#A80036;stroke-width:1.5;" width="198" x="353.4" y="1627"/><ellipse cx="397.2" cy="1643" fill="#ADD1B2" rx="11" ry="11" style="stroke:#A80036;stroke-width:1.0;"/><path d="M399.9656,1638.875 Q400.1219,1638.6563 400.3094,1638.5469 Q400.4969,1638.4375 400.7156,1638.4375 Q401.0906,1638.4375 401.325,1638.7031 Q401.5594,1638.9531 401.5594,1639.5625 L401.5594,1641.0156 Q401.5594,1641.625 401.325,1641.8906 Q401.0906,1642.1563 400.7156,1642.1563 Q400.3719,1642.1563 400.1688,1641.9531 Q399.9656,1641.7656 399.8563,1641.25 Q399.8094,1640.8906 399.6219,1640.7031 Q399.2938,1640.3281 398.6844,1640.1094 Q398.075,1639.8906 397.45,1639.8906 Q396.6844,1639.8906 396.0438,1640.2188 Q395.4188,1640.5469 394.9188,1641.2969 Q394.4344,1642.0469 394.4344,1643.0781 L394.4344,1644.1719 Q394.4344,1645.4063 395.325,1646.2344 Q396.2156,1647.0469 397.8094,1647.0469 Q398.7469,1647.0469 399.4031,1646.7969 Q399.7938,1646.6406 400.2156,1646.2031 Q400.4813,1645.9375 400.6219,1645.8594 Q400.7781,1645.7813 400.9813,1645.7813 Q401.3094,1645.7813 401.5594,1646.0469 Q401.825,1646.2969 401.825,1646.6406 Q401.825,1646.9844 401.4813,1647.3906 Q400.9813,1647.9688 400.1844,1648.2969 Q399.1063,1648.75 397.8094,1648.75 Q396.2938,1648.75 395.0906,1648.125 Q394.1063,1647.625 393.4188,1646.5625 Q392.7313,1645.4844 392.7313,1644.2031 L392.7313,1643.0469 Q392.7313,1641.7188 393.3406,1640.5781 Q393.9656,1639.4219 395.0594,1638.8125 Q396.1531,1638.1875 397.3875,1638.1875 Q398.1219,1638.1875 398.7625,1638.3594 Q399.4188,1638.5156 399.9656,1638.875 Z " fill="#000000"/><ellipse cx="422.6" cy="1642.5" fill="#84BE84" rx="3" ry="3" style="stroke:#038048;stroke-width:1.0;"/><text fill="#000000" font-family="sans-serif" font-size="12" lengthAdjust="spacing" textLength="91" x="428.6" y="1647.9102">FieldServiceImpl</text><line style="stroke:#A80036;stroke-width:1.5;" x1="354.4" x2="550.4" y1="1659" y2="1659"/><rect fill="none" height="6" style="stroke:#C82930;stroke-width:1.0;" width="6" x="361.4" y="1667"/><text fill="#000000" font-family="sans-serif" font-size="11" lengthAdjust="spacing" textLength="159" x="373.4" y="1674.4189">PackageService packageService</text><line style="stroke:#A80036;stroke-width:1.5;" x1="354.4" x2="550.4" y1="1680.8359" y2="1680.8359"/><polygon fill="#4177AF" points="364.4,1687.8359,360.4,1693.8359,368.4,1693.8359" style="stroke:#1963A0;stroke-width:1.0;"/><text fill="#000000" font-family="sans-serif" font-size="11" lengthAdjust="spacing" textLength="94" x="373.4" y="1696.2549">void analyzeField ()</text><polygon fill="#4177AF" points="364.4,1701.6719,360.4,1707.6719,368.4,1707.6719" style="stroke:#1963A0;stroke-width:1.0;"/><text fill="#000000" font-family="sans-serif" font-size="11" lengthAdjust="spacing" textLength="172" x="373.4" y="1710.0908">Consumer&lt;String&gt; createFieldDto ()</text><!--MD5=[db94511ff73c25040c57072aa4771965]
class Path--><rect fill="#FEFECE" filter="url(#f1vwjffpa9zb68)" height="32" id="Path" style="stroke:#A80036;stroke-width:1.5;" width="57" x="54.9" y="1462.5"/><ellipse cx="69.9" cy="1478.5" fill="#ADD1B2" rx="11" ry="11" style="stroke:#A80036;stroke-width:1.0;"/><path d="M72.6656,1474.375 Q72.8219,1474.1563 73.0094,1474.0469 Q73.1969,1473.9375 73.4156,1473.9375 Q73.7906,1473.9375 74.025,1474.2031 Q74.2594,1474.4531 74.2594,1475.0625 L74.2594,1476.5156 Q74.2594,1477.125 74.025,1477.3906 Q73.7906,1477.6563 73.4156,1477.6563 Q73.0719,1477.6563 72.8688,1477.4531 Q72.6656,1477.2656 72.5563,1476.75 Q72.5094,1476.3906 72.3219,1476.2031 Q71.9938,1475.8281 71.3844,1475.6094 Q70.775,1475.3906 70.15,1475.3906 Q69.3844,1475.3906 68.7438,1475.7188 Q68.1188,1476.0469 67.6188,1476.7969 Q67.1344,1477.5469 67.1344,1478.5781 L67.1344,1479.6719 Q67.1344,1480.9063 68.025,1481.7344 Q68.9156,1482.5469 70.5094,1482.5469 Q71.4469,1482.5469 72.1031,1482.2969 Q72.4938,1482.1406 72.9156,1481.7031 Q73.1813,1481.4375 73.3219,1481.3594 Q73.4781,1481.2813 73.6813,1481.2813 Q74.0094,1481.2813 74.2594,1481.5469 Q74.525,1481.7969 74.525,1482.1406 Q74.525,1482.4844 74.1813,1482.8906 Q73.6813,1483.4688 72.8844,1483.7969 Q71.8063,1484.25 70.5094,1484.25 Q68.9938,1484.25 67.7906,1483.625 Q66.8063,1483.125 66.1188,1482.0625 Q65.4313,1480.9844 65.4313,1479.7031 L65.4313,1478.5469 Q65.4313,1477.2188 66.0406,1476.0781 Q66.6656,1474.9219 67.7594,1474.3125 Q68.8531,1473.6875 70.0875,1473.6875 Q70.8219,1473.6875 71.4625,1473.8594 Q72.1188,1474.0156 72.6656,1474.375 Z " fill="#000000"/><text fill="#000000" font-family="sans-serif" font-size="12" lengthAdjust="spacing" textLength="25" x="83.9" y="1483.4102">Path</text><!--MD5=[e17605302a5c6fee4b16693e75a5b448]
class FileServiceImpl--><rect codeLine="190" fill="#FEFECE" filter="url(#f1vwjffpa9zb68)" height="67.6719" id="FileServiceImpl" style="stroke:#A80036;stroke-width:1.5;" width="247" x="92.9" y="1196"/><ellipse cx="164.65" cy="1212" fill="#ADD1B2" rx="11" ry="11" style="stroke:#A80036;stroke-width:1.0;"/><path d="M167.4156,1207.875 Q167.5719,1207.6563 167.7594,1207.5469 Q167.9469,1207.4375 168.1656,1207.4375 Q168.5406,1207.4375 168.775,1207.7031 Q169.0094,1207.9531 169.0094,1208.5625 L169.0094,1210.0156 Q169.0094,1210.625 168.775,1210.8906 Q168.5406,1211.1563 168.1656,1211.1563 Q167.8219,1211.1563 167.6188,1210.9531 Q167.4156,1210.7656 167.3063,1210.25 Q167.2594,1209.8906 167.0719,1209.7031 Q166.7438,1209.3281 166.1344,1209.1094 Q165.525,1208.8906 164.9,1208.8906 Q164.1344,1208.8906 163.4938,1209.2188 Q162.8688,1209.5469 162.3688,1210.2969 Q161.8844,1211.0469 161.8844,1212.0781 L161.8844,1213.1719 Q161.8844,1214.4063 162.775,1215.2344 Q163.6656,1216.0469 165.2594,1216.0469 Q166.1969,1216.0469 166.8531,1215.7969 Q167.2438,1215.6406 167.6656,1215.2031 Q167.9313,1214.9375 168.0719,1214.8594 Q168.2281,1214.7813 168.4313,1214.7813 Q168.7594,1214.7813 169.0094,1215.0469 Q169.275,1215.2969 169.275,1215.6406 Q169.275,1215.9844 168.9313,1216.3906 Q168.4313,1216.9688 167.6344,1217.2969 Q166.5563,1217.75 165.2594,1217.75 Q163.7438,1217.75 162.5406,1217.125 Q161.5563,1216.625 160.8688,1215.5625 Q160.1813,1214.4844 160.1813,1213.2031 L160.1813,1212.0469 Q160.1813,1210.7188 160.7906,1209.5781 Q161.4156,1208.4219 162.5094,1207.8125 Q163.6031,1207.1875 164.8375,1207.1875 Q165.5719,1207.1875 166.2125,1207.3594 Q166.8688,1207.5156 167.4156,1207.875 Z " fill="#000000"/><ellipse cx="190.15" cy="1211.5" fill="#84BE84" rx="3" ry="3" style="stroke:#038048;stroke-width:1.0;"/><text fill="#000000" font-family="sans-serif" font-size="12" lengthAdjust="spacing" textLength="84" x="196.15" y="1216.9102">FileServiceImpl</text><line style="stroke:#A80036;stroke-width:1.5;" x1="93.9" x2="338.9" y1="1228" y2="1228"/><polygon fill="#4177AF" points="103.9,1235,99.9,1241,107.9,1241" style="stroke:#1963A0;stroke-width:1.0;"/><text fill="#000000" font-family="sans-serif" font-size="11" lengthAdjust="spacing" textLength="138" x="112.9" y="1243.4189">List&lt;Path&gt; iterateDirectory ()</text><polygon fill="#4177AF" points="103.9,1248.8359,99.9,1254.8359,107.9,1254.8359" style="stroke:#1963A0;stroke-width:1.0;"/><text fill="#000000" font-family="sans-serif" font-size="11" lengthAdjust="spacing" textLength="221" x="112.9" y="1257.2549">Predicate&lt;Path&gt; createNonNullJavaFileFilter ()</text><!--MD5=[16038e948eb8e7d057f4e94bb824f78b]
class PackageServiceImpl--><rect codeLine="202" fill="#FEFECE" filter="url(#f1vwjffpa9zb68)" height="95.3438" id="PackageServiceImpl" style="stroke:#A80036;stroke-width:1.5;" width="244" x="237.4" y="1891"/><ellipse cx="293.65" cy="1907" fill="#ADD1B2" rx="11" ry="11" style="stroke:#A80036;stroke-width:1.0;"/><path d="M296.4156,1902.875 Q296.5719,1902.6563 296.7594,1902.5469 Q296.9469,1902.4375 297.1656,1902.4375 Q297.5406,1902.4375 297.775,1902.7031 Q298.0094,1902.9531 298.0094,1903.5625 L298.0094,1905.0156 Q298.0094,1905.625 297.775,1905.8906 Q297.5406,1906.1563 297.1656,1906.1563 Q296.8219,1906.1563 296.6188,1905.9531 Q296.4156,1905.7656 296.3063,1905.25 Q296.2594,1904.8906 296.0719,1904.7031 Q295.7438,1904.3281 295.1344,1904.1094 Q294.525,1903.8906 293.9,1903.8906 Q293.1344,1903.8906 292.4938,1904.2188 Q291.8688,1904.5469 291.3688,1905.2969 Q290.8844,1906.0469 290.8844,1907.0781 L290.8844,1908.1719 Q290.8844,1909.4063 291.775,1910.2344 Q292.6656,1911.0469 294.2594,1911.0469 Q295.1969,1911.0469 295.8531,1910.7969 Q296.2438,1910.6406 296.6656,1910.2031 Q296.9313,1909.9375 297.0719,1909.8594 Q297.2281,1909.7813 297.4313,1909.7813 Q297.7594,1909.7813 298.0094,1910.0469 Q298.275,1910.2969 298.275,1910.6406 Q298.275,1910.9844 297.9313,1911.3906 Q297.4313,1911.9688 296.6344,1912.2969 Q295.5563,1912.75 294.2594,1912.75 Q292.7438,1912.75 291.5406,1912.125 Q290.5563,1911.625 289.8688,1910.5625 Q289.1813,1909.4844 289.1813,1908.2031 L289.1813,1907.0469 Q289.1813,1905.7188 289.7906,1904.5781 Q290.4156,1903.4219 291.5094,1902.8125 Q292.6031,1902.1875 293.8375,1902.1875 Q294.5719,1902.1875 295.2125,1902.3594 Q295.8688,1902.5156 296.4156,1902.875 Z " fill="#000000"/><ellipse cx="319.15" cy="1906.5" fill="#84BE84" rx="3" ry="3" style="stroke:#038048;stroke-width:1.0;"/><text fill="#000000" font-family="sans-serif" font-size="12" lengthAdjust="spacing" textLength="112" x="325.15" y="1911.9102">PackageServiceImpl</text><line style="stroke:#A80036;stroke-width:1.5;" x1="238.4" x2="480.4" y1="1923" y2="1923"/><polygon fill="#4177AF" points="248.4,1930,244.4,1936,252.4,1936" style="stroke:#1963A0;stroke-width:1.0;"/><text fill="#000000" font-family="sans-serif" font-size="11" lengthAdjust="spacing" textLength="130" x="257.4" y="1938.4189">boolean isjavaCoreClass ()</text><polygon fill="#4177AF" points="248.4,1943.8359,244.4,1949.8359,252.4,1949.8359" style="stroke:#1963A0;stroke-width:1.0;"/><text fill="#000000" font-family="sans-serif" font-size="11" lengthAdjust="spacing" textLength="137" x="257.4" y="1952.2549">String getImportFromClass ()</text><polygon fill="#4177AF" points="248.4,1957.6719,244.4,1963.6719,252.4,1963.6719" style="stroke:#1963A0;stroke-width:1.0;"/><text fill="#000000" font-family="sans-serif" font-size="11" lengthAdjust="spacing" textLength="218" x="257.4" y="1966.0908">Predicate&lt;String&gt; importFilterByClassName ()</text><polygon fill="#4177AF" points="248.4,1971.5078,244.4,1977.5078,252.4,1977.5078" style="stroke:#1963A0;stroke-width:1.0;"/><text fill="#000000" font-family="sans-serif" font-size="11" lengthAdjust="spacing" textLength="172" x="257.4" y="1979.9268">List&lt;String&gt; getImportsFromClass ()</text><!--MD5=[b4fe14a3db083df60472ca923494c18f]
class NodeUtils--><rect codeLine="210" fill="#FEFECE" filter="url(#f1vwjffpa9zb68)" height="109.1797" id="NodeUtils" style="stroke:#A80036;stroke-width:1.5;" width="234" x="613.4" y="411"/><ellipse cx="693.15" cy="427" fill="#ADD1B2" rx="11" ry="11" style="stroke:#A80036;stroke-width:1.0;"/><path d="M695.9156,422.875 Q696.0719,422.6563 696.2594,422.5469 Q696.4469,422.4375 696.6656,422.4375 Q697.0406,422.4375 697.275,422.7031 Q697.5094,422.9531 697.5094,423.5625 L697.5094,425.0156 Q697.5094,425.625 697.275,425.8906 Q697.0406,426.1563 696.6656,426.1563 Q696.3219,426.1563 696.1188,425.9531 Q695.9156,425.7656 695.8063,425.25 Q695.7594,424.8906 695.5719,424.7031 Q695.2438,424.3281 694.6344,424.1094 Q694.025,423.8906 693.4,423.8906 Q692.6344,423.8906 691.9938,424.2188 Q691.3688,424.5469 690.8688,425.2969 Q690.3844,426.0469 690.3844,427.0781 L690.3844,428.1719 Q690.3844,429.4063 691.275,430.2344 Q692.1656,431.0469 693.7594,431.0469 Q694.6969,431.0469 695.3531,430.7969 Q695.7438,430.6406 696.1656,430.2031 Q696.4313,429.9375 696.5719,429.8594 Q696.7281,429.7813 696.9313,429.7813 Q697.2594,429.7813 697.5094,430.0469 Q697.775,430.2969 697.775,430.6406 Q697.775,430.9844 697.4313,431.3906 Q696.9313,431.9688 696.1344,432.2969 Q695.0563,432.75 693.7594,432.75 Q692.2438,432.75 691.0406,432.125 Q690.0563,431.625 689.3688,430.5625 Q688.6813,429.4844 688.6813,428.2031 L688.6813,427.0469 Q688.6813,425.7188 689.2906,424.5781 Q689.9156,423.4219 691.0094,422.8125 Q692.1031,422.1875 693.3375,422.1875 Q694.0719,422.1875 694.7125,422.3594 Q695.3688,422.5156 695.9156,422.875 Z " fill="#000000"/><ellipse cx="718.65" cy="426.5" fill="#84BE84" rx="3" ry="3" style="stroke:#038048;stroke-width:1.0;"/><text fill="#000000" font-family="sans-serif" font-size="12" lengthAdjust="spacing" textLength="55" x="724.65" y="431.9102">NodeUtils</text><line style="stroke:#A80036;stroke-width:1.5;" x1="614.4" x2="846.4" y1="443" y2="443"/><polygon fill="#4177AF" points="624.4,450,620.4,456,628.4,456" style="stroke:#1963A0;stroke-width:1.0;"/><text fill="#000000" font-family="sans-serif" font-size="11" lengthAdjust="spacing" textLength="140" x="633.4" y="458.4189">String parseAccesModifier ()</text><polygon fill="#4177AF" points="624.4,463.8359,620.4,469.8359,628.4,469.8359" style="stroke:#1963A0;stroke-width:1.0;"/><text fill="#000000" font-family="sans-serif" font-size="11" lengthAdjust="spacing" textLength="147" x="633.4" y="472.2549">StringBuilder parseModifiers ()</text><polygon fill="#4177AF" points="624.4,477.6719,620.4,483.6719,628.4,483.6719" style="stroke:#1963A0;stroke-width:1.0;"/><text fill="#000000" font-family="sans-serif" font-size="11" lengthAdjust="spacing" textLength="141" x="633.4" y="486.0908">String parseClassModifiers ()</text><polygon fill="#4177AF" points="624.4,491.5078,620.4,497.5078,628.4,497.5078" style="stroke:#1963A0;stroke-width:1.0;"/><text fill="#000000" font-family="sans-serif" font-size="11" lengthAdjust="spacing" textLength="208" x="633.4" y="499.9268">Predicate&lt;Keyword&gt; createModifierFilter ()</text><polygon fill="#4177AF" points="624.4,505.3438,620.4,511.3438,628.4,511.3438" style="stroke:#1963A0;stroke-width:1.0;"/><text fill="#000000" font-family="sans-serif" font-size="11" lengthAdjust="spacing" textLength="208" x="633.4" y="513.7627">Predicate&lt;Keyword&gt; createModifierFilter ()</text><!--MD5=[09a1dec8af76f3ea72a2fd072b8c15f3]
reverse link SpringBeanConfig to JavaParser--><path codeLine="8" d="M106.4,865.26 C106.4,912.03 106.4,987.85 106.4,1019.91 " fill="none" id="SpringBeanConfig-backto-JavaParser" style="stroke:#A80036;stroke-width:1.0;"/><polygon fill="#FFFFFF" points="106.4,852.05,102.4,858.05,106.4,864.05,110.4,858.05,106.4,852.05" style="stroke:#A80036;stroke-width:1.0;"/><!--MD5=[9a76137297e7cbd2253d4730a9707444]
reverse link DiagramObject to ClassDto--><path d="M864.4,1568.5 C864.4,1568.5 943.08,1627.36 981.19,1655.88 " fill="none" id="DiagramObject-backto-ClassDto" style="stroke:#A80036;stroke-width:1.0;"/><!--MD5=[4ee1a48ce4981eef161f0f1bb75da439]
reverse link DiagramObject to EnumDto--><path d="M864.4,1568.5 C864.4,1568.5 785.72,1627.36 747.61,1655.88 " fill="none" id="DiagramObject-backto-EnumDto" style="stroke:#A80036;stroke-width:1.0;"/><!--MD5=[6b59341a89e60c0a0273b3c4689410dd]
reverse link DiagramObject to InterfaceDto--><path d="M864.4,1568.5 C864.4,1568.5 864.4,1627.36 864.4,1655.88 " fill="none" id="DiagramObject-backto-InterfaceDto" style="stroke:#A80036;stroke-width:1.0;"/><!--MD5=[d30a6f4c9732f1286a7e2185313ffe0f]
reverse link CommandLineRunner to Main--><path d="M977.4,215.32 C977.4,265.28 977.4,356.83 977.4,413.96 " fill="none" id="CommandLineRunner-backto-Main" style="stroke:#A80036;stroke-width:1.0;stroke-dasharray:7.0,7.0;"/><polygon fill="none" points="970.4,215.3,977.4,195.3,984.4,215.3,970.4,215.3" style="stroke:#A80036;stroke-width:1.0;"/><!--MD5=[81fcdba5d84f2f68cabad74c28993540]
reverse link Main to AnalyzerService--><path codeLine="98" d="M929.37,527.68 C913.11,548.41 895.8,570.45 882.85,586.94 " fill="none" id="Main-backto-AnalyzerService" style="stroke:#A80036;stroke-width:1.0;"/><polygon fill="#A80036" points="937.5,517.33,930.6474,519.5754,930.0844,526.7644,936.937,524.5191,937.5,517.33" style="stroke:#A80036;stroke-width:1.0;"/><!--MD5=[f24a1b055fb51804a9adeed59870b449]
reverse link Main to DiagramService--><path codeLine="99" d="M1025.42,527.68 C1039.41,545.5 1054.18,564.31 1066.27,579.71 " fill="none" id="Main-backto-DiagramService" style="stroke:#A80036;stroke-width:1.0;"/><polygon fill="#A80036" points="1017.3,517.33,1017.863,524.5191,1024.7156,526.7644,1024.1526,519.5754,1017.3,517.33" style="stroke:#A80036;stroke-width:1.0;"/><!--MD5=[33ec3d78ab7186373c099bb08a7b1daa]
reverse link AnalyzerService to DiagramObject--><path codeLine="105" d="M862.49,654.37 C862.79,784.9 863.77,1205.55 864.2,1389.74 " fill="none" id="AnalyzerService-backto-DiagramObject" style="stroke:#A80036;stroke-width:1.0;"/><polygon fill="#FFFFFF" points="862.46,641.28,858.4732,647.2888,862.4864,653.28,866.4732,647.2712,862.46,641.28" style="stroke:#A80036;stroke-width:1.0;"/><text fill="#000000" font-family="sans-serif" font-size="13" lengthAdjust="spacing" textLength="7" x="854.7075" y="662.549">1</text><text fill="#000000" font-family="sans-serif" font-size="13" lengthAdjust="spacing" textLength="9" x="854.8108" y="1379.2429">N</text><!--MD5=[4ecb63d9427b6f1b62780d73a30a9f33]
reverse link AnalyzerService to AnalyzerServiceImpl--><path d="M815.28,653.77 C786.33,677.59 748.06,709.08 712.32,738.49 " fill="none" id="AnalyzerService-backto-AnalyzerServiceImpl" style="stroke:#A80036;stroke-width:1.0;stroke-dasharray:7.0,7.0;"/><polygon fill="none" points="810.85,648.35,830.74,641.05,819.75,659.16,810.85,648.35" style="stroke:#A80036;stroke-width:1.0;"/><!--MD5=[f33ccb841d4dad5d47b3033d78bd255a]
reverse link AnalyzerServiceImpl to FileService--><path codeLine="118" d="M458.63,918.61 C405.39,951.53 349.58,986.04 312.68,1008.86 " fill="none" id="AnalyzerServiceImpl-backto-FileService" style="stroke:#A80036;stroke-width:1.0;"/><polygon fill="#A80036" points="469.95,911.61,462.7433,911.3594,459.7401,917.9154,466.9468,918.166,469.95,911.61" style="stroke:#A80036;stroke-width:1.0;"/><!--MD5=[55eee76e6d5bffa01834c5f88dd86ad3]
reverse link AnalyzerServiceImpl to JavaParser--><path codeLine="119" d="M448.74,886.46 C365.35,918.99 262.07,960.82 171.4,1002 C159.3,1007.5 146.19,1014.03 134.94,1019.84 " fill="none" id="AnalyzerServiceImpl-backto-JavaParser" style="stroke:#A80036;stroke-width:1.0;"/><polygon fill="#A80036" points="460.89,881.72,453.8462,880.1755,449.7114,886.0833,456.7551,887.6279,460.89,881.72" style="stroke:#A80036;stroke-width:1.0;"/><!--MD5=[9f88f1f4c961905a908d5246a7542821]
reverse link AnalyzerServiceImpl to ClassService--><path codeLine="120" d="M608.4,924.75 C608.4,952.57 608.4,980.93 608.4,1001.92 " fill="none" id="AnalyzerServiceImpl-backto-ClassService" style="stroke:#A80036;stroke-width:1.0;"/><polygon fill="#A80036" points="608.4,911.61,604.4,917.61,608.4,923.61,612.4,917.61,608.4,911.61" style="stroke:#A80036;stroke-width:1.0;"/><!--MD5=[4f717863b7f32cbedc2c86b764650319]
reverse link AnalyzerServiceImpl to DiagramObject--><path codeLine="121" d="M688.96,922.24 C707.67,947.26 726.46,974.84 741.4,1002 C809.94,1126.58 841.37,1290.61 854.96,1389.84 " fill="none" id="AnalyzerServiceImpl-backto-DiagramObject" style="stroke:#A80036;stroke-width:1.0;"/><polygon fill="#FFFFFF" points="680.96,911.69,681.3996,918.8877,688.2126,921.2503,687.7731,914.0526,680.96,911.69" style="stroke:#A80036;stroke-width:1.0;"/><text fill="#000000" font-family="sans-serif" font-size="13" lengthAdjust="spacing" textLength="7" x="679.2474" y="932.4665">1</text><text fill="#000000" font-family="sans-serif" font-size="13" lengthAdjust="spacing" textLength="9" x="844.762" y="1379.0499">N</text><!--MD5=[e707b31e7770521a92303119b67f86a4]
reverse link ClassService to DiagramObject--><path codeLine="128" d="M671.02,1078.23 C689.73,1092.86 709.06,1110.56 723.4,1130 C780.24,1207.04 767.33,1241.32 803.4,1330 C811.28,1349.38 819.82,1370.16 827.94,1389.82 " fill="none" id="ClassService-backto-DiagramObject" style="stroke:#A80036;stroke-width:1.0;"/><polygon fill="#FFFFFF" points="660.42,1070.21,662.7931,1077.0194,669.9914,1077.4479,667.6184,1070.6385,660.42,1070.21" style="stroke:#A80036;stroke-width:1.0;"/><!--MD5=[835b14b9332172fc81af8f625b755697]
reverse link ClassService to ClassServiceImpl--><path d="M589.88,1089.28 C585.4,1101.95 580.45,1115.92 575.47,1129.96 " fill="none" id="ClassService-backto-ClassServiceImpl" style="stroke:#A80036;stroke-width:1.0;stroke-dasharray:7.0,7.0;"/><polygon fill="none" points="583.43,1086.52,596.71,1070.01,596.63,1091.2,583.43,1086.52" style="stroke:#A80036;stroke-width:1.0;"/><!--MD5=[3fa6b4c09f75091c614e680040949568]
reverse link ClassServiceImpl to FieldService--><path codeLine="143" d="M600.54,1341.62 C622.68,1382.36 645.84,1424.96 660.19,1451.37 " fill="none" id="ClassServiceImpl-backto-FieldService" style="stroke:#A80036;stroke-width:1.0;"/><polygon fill="#A80036" points="594.32,1330.2,593.6759,1337.3823,600.0579,1340.7393,600.702,1333.557,594.32,1330.2" style="stroke:#A80036;stroke-width:1.0;"/><!--MD5=[c584b04b595620e08ad42b07b41c7335]
reverse link ClassServiceImpl to PackageService--><path codeLine="144" d="M363.49,1327.11 C361.45,1328.08 359.42,1329.05 357.4,1330 C293.2,1360.27 249.06,1331.13 209.4,1390 C121.6,1520.33 272.23,1708.34 334.42,1776.81 " fill="none" id="ClassServiceImpl-backto-PackageService" style="stroke:#A80036;stroke-width:1.0;"/><polygon fill="#A80036" points="375.24,1321.41,368.0961,1320.4277,364.4418,1326.6443,371.5857,1327.6266,375.24,1321.41" style="stroke:#A80036;stroke-width:1.0;"/><!--MD5=[3e162e403c514eb2f6a5e9a2ad24fcd8]
reverse link ClassServiceImpl to DiagramObject--><path codeLine="145" d="M683.82,1337.97 C706.81,1355.29 730.3,1373.08 752.4,1390 C757.89,1394.2 763.51,1398.53 769.18,1402.9 " fill="none" id="ClassServiceImpl-backto-DiagramObject" style="stroke:#A80036;stroke-width:1.0;"/><polygon fill="#FFFFFF" points="673.3,1330.05,675.6895,1336.8537,682.8889,1337.2648,680.4994,1330.4611,673.3,1330.05" style="stroke:#A80036;stroke-width:1.0;"/><!--MD5=[09f19455ef85b3b8f34e347ac9508294]
reverse link ClassServiceImpl to MethodDto--><path codeLine="146" d="M517.68,1343.03 C513.35,1364.36 508.93,1386.14 504.95,1405.78 " fill="none" id="ClassServiceImpl-backto-MethodDto" style="stroke:#A80036;stroke-width:1.0;"/><polygon fill="#FFFFFF" points="520.28,1330.2,515.1656,1335.2836,517.8911,1341.9598,523.0055,1336.8762,520.28,1330.2" style="stroke:#A80036;stroke-width:1.0;"/><text fill="#000000" font-family="sans-serif" font-size="13" lengthAdjust="spacing" textLength="7" x="511.5454" y="1351.6468">1</text><text fill="#000000" font-family="sans-serif" font-size="13" lengthAdjust="spacing" textLength="9" x="496.9864" y="1394.9766">N</text><!--MD5=[142e9119ddec917a744b8c73d965f59e]
reverse link ClassServiceImpl to FieldDto--><path codeLine="147" d="M432.88,1339.62 C404.01,1368.79 374.04,1399.07 349.56,1423.79 " fill="none" id="ClassServiceImpl-backto-FieldDto" style="stroke:#A80036;stroke-width:1.0;"/><polygon fill="#FFFFFF" points="442.21,1330.2,435.1456,1331.6471,433.7643,1338.7247,440.8287,1337.2776,442.21,1330.2" style="stroke:#A80036;stroke-width:1.0;"/><text fill="#000000" font-family="sans-serif" font-size="13" lengthAdjust="spacing" textLength="7" x="427.7421" y="1351.6468">1</text><text fill="#000000" font-family="sans-serif" font-size="13" lengthAdjust="spacing" textLength="9" x="346.7946" y="1413.2614">N</text><!--MD5=[26910044343d909a29fdedfe9bff72c7]
reverse link DiagramService to DiagramServiceImpl--><path d="M1092.4,668.49 C1092.4,680.66 1092.4,694.05 1092.4,707.72 " fill="none" id="DiagramService-backto-DiagramServiceImpl" style="stroke:#A80036;stroke-width:1.0;stroke-dasharray:7.0,7.0;"/><polygon fill="none" points="1085.4,668.12,1092.4,648.12,1099.4,668.12,1085.4,668.12" style="stroke:#A80036;stroke-width:1.0;"/><!--MD5=[916247a3ad606649897ab420c49d83ab]
reverse link FieldService to FieldServiceImpl--><path d="M640.97,1521.32 C628.06,1536.42 612.71,1553.14 597.4,1567 C573.74,1588.41 545.65,1609.43 520.52,1626.91 " fill="none" id="FieldService-backto-FieldServiceImpl" style="stroke:#A80036;stroke-width:1.0;stroke-dasharray:7.0,7.0;"/><polygon fill="none" points="635.73,1516.68,653.92,1505.8,646.49,1525.64,635.73,1516.68" style="stroke:#A80036;stroke-width:1.0;"/><!--MD5=[d51bd7c335bb0e4e2f50eb2bbd6b6362]
reverse link FieldServiceImpl to PackageService--><path codeLine="183" d="M413.08,1727.97 C400.95,1744.92 388.16,1762.8 378.1,1776.86 " fill="none" id="FieldServiceImpl-backto-PackageService" style="stroke:#A80036;stroke-width:1.0;"/><polygon fill="#A80036" points="420.91,1717.01,414.1667,1719.5649,413.9314,1726.7721,420.6747,1724.2173,420.91,1717.01" style="stroke:#A80036;stroke-width:1.0;"/><!--MD5=[a06a96c1ed1304e4579f6e3fda0b8f89]
reverse link FileService to Path--><path codeLine="189" d="M183.79,1067.76 C137.88,1086.01 88.33,1109.51 75.4,1130 C6,1239.98 59.11,1411.04 77.65,1462.42 " fill="none" id="FileService-backto-Path" style="stroke:#A80036;stroke-width:1.0;"/><polygon fill="#FFFFFF" points="195.98,1063,188.9362,1061.4555,184.8014,1067.3633,191.8451,1068.9079,195.98,1063" style="stroke:#A80036;stroke-width:1.0;"/><text fill="#000000" font-family="sans-serif" font-size="13" lengthAdjust="spacing" textLength="7" x="173.6395" y="1083.4365">1</text><text fill="#000000" font-family="sans-serif" font-size="13" lengthAdjust="spacing" textLength="9" x="65.1266" y="1451.698">N</text><!--MD5=[673433a5e87140a0bce6fc11ce4a760c]
reverse link FileService to FileServiceImpl--><path d="M257.56,1082.66 C247.76,1117.5 234.49,1164.69 225.69,1195.95 " fill="none" id="FileService-backto-FileServiceImpl" style="stroke:#A80036;stroke-width:1.0;stroke-dasharray:7.0,7.0;"/><polygon fill="none" points="250.85,1080.65,263,1063.29,264.33,1084.44,250.85,1080.65" style="stroke:#A80036;stroke-width:1.0;"/><!--MD5=[20c25c8b271225b79fad700db9adcb2c]
reverse link FileServiceImpl to Path--><path codeLine="196" d="M192.11,1276.02 C161.66,1332.45 111.11,1426.15 91.51,1462.47 " fill="none" id="FileServiceImpl-backto-Path" style="stroke:#A80036;stroke-width:1.0;"/><polygon fill="#FFFFFF" points="198.46,1264.24,192.0862,1267.6127,192.748,1274.7933,199.1218,1271.4207,198.46,1264.24" style="stroke:#A80036;stroke-width:1.0;"/><text fill="#000000" font-family="sans-serif" font-size="13" lengthAdjust="spacing" textLength="7" x="187.775" y="1285.0535">1</text><text fill="#000000" font-family="sans-serif" font-size="13" lengthAdjust="spacing" textLength="9" x="83.7509" y="1451.7652">N</text><!--MD5=[f0c7dee02249dd9fb91b1d7a50b45526]
reverse link PackageService to PackageServiceImpl--><path d="M359.4,1851.36 C359.4,1864.2 359.4,1878.14 359.4,1890.99 " fill="none" id="PackageService-backto-PackageServiceImpl" style="stroke:#A80036;stroke-width:1.0;stroke-dasharray:7.0,7.0;"/><polygon fill="none" points="352.4,1851.18,359.4,1831.18,366.4,1851.18,352.4,1851.18" style="stroke:#A80036;stroke-width:1.0;"/><!--MD5=[5e0b7e6e1c03065f3d0aa425fdd08ea4]
link RegExpConstants to ModifierEnum--><!--MD5=[3a375c0b15901d894c68655e2798710a]
link RegExpConstants to ParameterDto--><!--MD5=[f4c2ef01aafd10bfa18f9db4a330cf66]
link ParameterDto to NodeUtils--><!--MD5=[044221958bc18d20145462ebe577f5fe]
@startuml
hide empty members
skinparam groupInheritance 2
+class SpringBeanConfig{


~  JavaParser createJavaparser ()
}
SpringBeanConfig o- - JavaParser
+class RegExpConstants{
+ String JAVA_PRIMITIVES
+ String GENERIC_CORE_JAVA_OBJECT_PATTERN
+ String JAVA_LANG_REFLECT_CLASSES
+ String JAVA_LANG_REF_CLASSES
+ String JAVA_LANG_MANAGEMENT_CLASSES
+ String JAVA_LANG_INVOKE_CLASSES
+ String JAVA_LANG_INSTRUMENT_CLASSES
+ String JAVA_LANG_CLASSES
+ String JAVA_LANG_INTERFACES
+ String JAVA_LANG_ANNOTATIONS_INTERFACES
+ String JAVA_LANG_INSTRUMENT_INTERFACES
+ String JAVA_LANG_INVOKE_INTERFACES
+ String JAVA_LANG_MANAGEMENT_INTERFACES
+ String JAVA_LANG_REFLECT_INTERFACES
+ String JAVA_LANG_REFLECT
+ String JAVA_LANG_MANAGEMENT
+ String JAVA_LANG_INVOKE
+ String JAVA_LANG_INTRUMENT
+ String JAVA_LANG
+ String JAVA_CORE_REG_EXP
+ String JAVA_CORE_PACKAGE_REGEXP
+ String BLACK_LIST


}
+class ClassDto extends DiagramObject{



}
+abstract  class DiagramObject{
# String name
# String modifiers
# String accessModifier
# List<String> implement
# List<String> extended
# List<FieldDto> fields
# List<MethodDto> methods


}
+class EnumDto extends DiagramObject{



}
+class FieldDto{
- String accessModifier
- List<String> modifiers
- String type
- String name
- Boolean isProjectObject


}
+class InterfaceDto extends DiagramObject{



}
+class MethodDto{
- String name
- String accessModifier
- List<ParameterDto> parameters
- String returnType
- Boolean isReturnFromJavaCore
- String modifiers

~  String toString ()
}
+enum ModifierEnum{
- String modifier


}
+class ParameterDto{
- String name
- Boolean isFromJavaCore

~  String toString ()
}
+class Main implements CommandLineRunner{
- AnalyzerService analyzerService
- DiagramService diagramService

~ {static}  void main ()
~  void run ()
}
Main *- - AnalyzerService
Main *- - DiagramService
+interface AnalyzerService{


~  List<DiagramObject> analyzeFilesFromPath ()
}
AnalyzerService "1" o- - "N" DiagramObject
+class AnalyzerServiceImpl implements AnalyzerService{
- FileService fileService
- JavaParser javaParser
- ClassService classService

~  List<DiagramObject> analyzeFilesFromPath ()
~  Consumer<Path> parseFile ()
~  Optional<CompilationUnit> getCompilationUnitFromPath ()
~  List<DiagramObject> analyzeCompilationUnit ()
~  List<DiagramObject> processClassOrInterfaces ()
~  List<DiagramObject> processEnums ()
}
AnalyzerServiceImpl *- - FileService
AnalyzerServiceImpl *- - JavaParser
AnalyzerServiceImpl *- - ClassService
AnalyzerServiceImpl "1" o- - "N" DiagramObject
+interface ClassService{


~  DiagramObject analyzeEnum ()
~  DiagramObject analyzeClassOrInterface ()
}
ClassService o- - DiagramObject
+class ClassServiceImpl implements ClassService{
- FieldService fieldService
- PackageService packageService

~  DiagramObject analyzeEnum ()
~  DiagramObject analyzeClassOrInterface ()
~  void processDiagramClass ()
~  String processName ()
~  List<MethodDto> parseMethodSignature ()
~  MethodDto createFullMethodSignature ()
~  Function<TypeParameter,ParameterDto> createParameterDto ()
~  List<FieldDto> parseClassFields ()
~  List<String> parseClassNodeListToString ()
}
ClassServiceImpl *- - FieldService
ClassServiceImpl *- - PackageService
ClassServiceImpl o- - DiagramObject
ClassServiceImpl "1" o- - "N" MethodDto
ClassServiceImpl "1" o- - "N" FieldDto
+interface DiagramService{


~  void createDiagramFile ()
~  void createDiagramFile ()
}
+class DiagramServiceImpl implements DiagramService{


~  void createDiagramFile ()
~  void createDiagramFile ()
~  void createJavaDiagramFile ()
~  void createSvgFile ()
~  String createfullDiagramString ()
~  List<String> convertToString ()
~  void addAggregation ()
~  List<String> processMethods ()
~  String getType ()
~  String createFieldsString ()
~  String parseModifier ()
~  String parseAbstractStatic ()
~  String createExtendsOrImplements ()
~  String createFullStringClassLine ()
}
+interface FieldService{


~  void analyzeField ()
}
+class FieldServiceImpl implements FieldService{
- PackageService packageService

~  void analyzeField ()
~  Consumer<String> createFieldDto ()
}
FieldServiceImpl *- - PackageService
+interface FileService{


~  List<Path> iterateDirectory ()
}
FileService "1" o- - "N" Path
+class FileServiceImpl implements FileService{


~  List<Path> iterateDirectory ()
~  Predicate<Path> createNonNullJavaFileFilter ()
}
FileServiceImpl "1" o- - "N" Path
+interface PackageService{


~  boolean isjavaCoreClass ()
}
+class PackageServiceImpl implements PackageService{


~  boolean isjavaCoreClass ()
~  String getImportFromClass ()
~  Predicate<String> importFilterByClassName ()
~  List<String> getImportsFromClass ()
}
+class NodeUtils{


~  String parseAccesModifier ()
~  StringBuilder parseModifiers ()
~  String parseClassModifiers ()
~  Predicate<Keyword> createModifierFilter ()
~  Predicate<Keyword> createModifierFilter ()
}
@enduml

PlantUML version 1.2021.5(Sun Apr 25 13:20:28 CEST 2021)
(GPL source distribution)
Java Runtime: OpenJDK Runtime Environment
JVM: OpenJDK 64-Bit Server VM
Default Encoding: UTF-8
Language: es
Country: ES
--></g></svg>